<svg xmlns="http://www.w3.org/2000/svg" viewBox="0 0 250 91.46"><defs><style>.cls-1,.cls-2{fill:#fe2000;}.cls-2{font-size:6.94px;font-family:MyriadPro-Regular, Myriad Pro;}</style></defs><title>Compact logo</title><g id="Layer_2" data-name="Layer 2"><g id="Layer_1-2" data-name="Layer 1"><polygon class="cls-1" points="72.25 91.08 76.36 91.08 76.36 82.49 83.47 82.49 83.47 79.11 76.36 79.11 76.36 73.27 84.07 73.27 84.07 69.86 72.25 69.86 72.25 91.08"/><rect class="cls-1" x="108.39" y="69.85" width="4.11" height="21.23"/><polygon class="cls-1" points="142.35 69.86 138.24 69.86 138.24 91.08 150.38 91.08 150.38 87.68 142.35 87.68 142.35 69.86"/><path class="cls-1" d="M187.44,82.54c-.37,1.11-.67,2.08-.88,2.9h-.1a14.65,14.65,0,0,0-.81-2.87l-4.89-13h-5.82V90.46h3.68V78.18c0-1.81-.05-3.49-.16-5h.1a24.08,24.08,0,0,0,.65,2.68l5.62,14.63h3.08l5.55-14.76a17.24,17.24,0,0,0,.65-2.55h.09c-.12,1.95-.17,3.4-.17,4.34v13h4V69.54h-5.65Z"/><path class="cls-1" d="M230.75,78.43a12,12,0,0,1-3.4-1.92,2.29,2.29,0,0,1-.73-1.63,2,2,0,0,1,1-1.76,5.13,5.13,0,0,1,2.73-.64,8.47,8.47,0,0,1,4.91,1.39V70a12.9,12.9,0,0,0-5-.8,9.54,9.54,0,0,0-5.74,1.6,5.18,5.18,0,0,0-2.19,4.43,5.29,5.29,0,0,0,1.17,3.42,10,10,0,0,0,3.78,2.62,14.38,14.38,0,0,1,3.85,2.1,2.45,2.45,0,0,1,.79,1.75,2.06,2.06,0,0,1-.95,1.77,5,5,0,0,1-2.88.68,8.67,8.67,0,0,1-5.7-2.06v4.15a12.26,12.26,0,0,0,5.75,1.18,9.79,9.79,0,0,0,5.92-1.56,5.25,5.25,0,0,0,2.11-4.51A5.38,5.38,0,0,0,235,81.24,11.36,11.36,0,0,0,230.75,78.43Z"/><path class="cls-1" d="M52.84,2.92H40.12A27.4,27.4,0,0,1,45.44,5.3q8,4.65,8,12.88,0,9.46-8.58,14.37a16.06,16.06,0,0,1,8,5.74,15.29,15.29,0,0,1,3,9.31A16.57,16.57,0,0,1,48,62.33q-6.72,4.44-16.8,4.45A61.52,61.52,0,0,1,18.4,65.69q-10.9-2.26-10.91-4a3.26,3.26,0,0,1,.21-.93Q8.42,58.81,9.82,55c.27-1.27.76-3.17,1.45-5.69.31-.86.82-1.29,1.54-1.29,0,0,1.54.61,4.64,1.71a24.36,24.36,0,0,0,7.83,1.7q10.13,0,10.13-6.77,0-5.43-9.62-5.43c-.86,0-2,0-3.41.1s-2.34.11-2.79.11c-2.1,0-3.26,0-3.46,0-1.52-.18-2.28-.76-2.28-1.76q0-7.92.62-9.93a1.64,1.64,0,0,1,1.66-1.29,45.31,45.31,0,0,1,5.19.44,45.49,45.49,0,0,0,5.15.44,5.06,5.06,0,0,0,5.17-5.23q0-6.09-8.89-6.09a35.43,35.43,0,0,0-10.09,2,2.68,2.68,0,0,1-.46.05q-.67,0-1.14-1.44c-.07-1.45-.17-3.1-.31-5,0-.41-.14-1.24-.31-2.48a18.33,18.33,0,0,1-.21-2.43q0-2.34,6.21-3.78H9.7A9.7,9.7,0,0,0,0,12.62V81.76a9.7,9.7,0,0,0,9.7,9.7H52.84a9.7,9.7,0,0,0,9.69-9.7V12.62A9.69,9.69,0,0,0,52.84,2.92Z"/><path class="cls-1" d="M111.73,8.63q-5.4-5.3-14.25-5.56C93.9,3,90.16,2.92,86.25,2.92q-9.93,0-12.83.38c-.8.1-1.17.38-1.12.86l0,.52q1,12.92,1,24.62c0,2.77,0,6.91-.13,12.45s-.13,9.68-.13,12.44a1,1,0,0,0,1.08,1.08c1.52,0,3.79,0,6.83.13s5.31.13,6.83.13c.52,0,.78-.28.78-.85,0-1.12-.11-2.81-.33-5.08s-.34-4-.34-5.11c0-.92.53-1.38,1.6-1.38s2.5.06,4.5.17,3.5.17,4.5.17q8.91,0,14-5.94,4.74-5.59,4.74-14.62Q117.26,14.09,111.73,8.63Zm-17.46,23q-6.7,0-6.71-.75c0-.77,0-1.91-.1-3.42s-.09-2.64-.09-3.41q0-8.13.26-8.62.3-.68,6.27-.67,8.47,0,8.47,8.69Q102.37,31.66,94.27,31.66Z"/><path class="cls-1" d="M157,21a53.62,53.62,0,0,0-5.3-1.27,33.38,33.38,0,0,0-5.26-.79c-.4,0-.74.61-1,1.81s-.54,1.81-.76,1.81-.16-.06-.26-.18a11.38,11.38,0,0,0-9.26-4.11q-8.43,0-13.28,5.45-4.66,5.26-4.66,13.88a19.32,19.32,0,0,0,4.51,12.84,15,15,0,0,0,12.05,5.74q4.78,0,9-4.21a3.25,3.25,0,0,1,.78-.64c.23,0,.42.75.58,2.18s.48,2.15.95,2.15q6,0,10.6-.34c.87-.07,1.31-.61,1.31-1.6,0-1.89-.12-4.73-.34-8.51s-.34-6.63-.34-8.54a81.57,81.57,0,0,1,1.2-14.29c.07-.43.11-.69.11-.79S157.36,21.1,157,21ZM142.21,42.12A6.91,6.91,0,0,1,137,44.19,6.82,6.82,0,0,1,132,42a7.21,7.21,0,0,1-2.09-5.19,7.26,7.26,0,0,1,2-5.26,7.58,7.58,0,0,1,10.39,0,7.25,7.25,0,0,1,2,5.24A7.23,7.23,0,0,1,142.21,42.12Z"/><path class="cls-1" d="M186.62,53.3a4.67,4.67,0,0,0,1.23-.86,2.64,2.64,0,0,0,.22-1.36,29.58,29.58,0,0,1,.28-3.34,29.86,29.86,0,0,0,.28-3.4c0-.55-.26-.82-.78-.82a11.73,11.73,0,0,0-2.45.43,11.74,11.74,0,0,1-2.66.43c-2,0-3.29-.54-4-1.61a9.2,9.2,0,0,1-.71-4.32c0-.58,0-1.46,0-2.65V33.15c0-1.1.19-1.64.56-1.64h2.8c.5,0,1.33,0,2.5,0s2,.06,2.5.06c.72,0,1.08-.26,1.08-.79s0-1.46,0-2.61,0-2,0-2.61a24.57,24.57,0,0,1,.19-2.57q.18-1.72.18-2.58c0-.37-.27-.56-.82-.56-.89,0-2.22,0-4,.11s-3.09.12-4,.12q-1.08,0-1.08-1.83c0-1,.08-2.54.24-4.55s.25-3.52.25-4.52c0-.37-.31-.58-.94-.63q-3.84-.45-5.74-.71a27.71,27.71,0,0,1-2.95-.56,13.23,13.23,0,0,0-2.87-.45c-.55,0-.82,1.44-.82,4.33q0-.23.15,4.59a27.26,27.26,0,0,1-.15,4.47c-.08.48-.56.73-1.46.75-1.59.05-2.39.32-2.39.82s0,1.32.1,2.39.09,1.87.09,2.39,0,1-.09,1.83-.1,1.43-.1,1.82c0,.68.48,1,1.42,1a4,4,0,0,0,.49,0h.48c1.27,0,1.9.55,1.9,1.65q0,2.46-.18,7.4t-.19,7.41q0,8.25,10.78,8.24A21.84,21.84,0,0,0,186.62,53.3Z"/><path class="cls-1" d="M217,43.58a11.85,11.85,0,0,0-2.41.42,12.13,12.13,0,0,1-2.63.43q-2.91,0-3.9-1.59a9.13,9.13,0,0,1-.7-4.26c0-.56,0-1.44,0-2.61V33.36c0-1.08.18-1.62.55-1.62h2.76l2.46.05q1.72.06,2.46.06c.71,0,1.07-.26,1.07-.77s0-1.45,0-2.58,0-2,0-2.57.06-1.41.18-2.54.18-2,.18-2.54c0-.36-.27-.55-.8-.55-.89,0-2.2,0-3.94.11s-3,.11-3.9.11c-.71,0-1.06-.6-1.06-1.8,0-1,.08-2.5.23-4.49s.24-3.46.24-4.44c0-.37-.3-.58-.92-.63-2.52-.29-4.41-.53-5.66-.7a25.82,25.82,0,0,1-2.9-.55,13.41,13.41,0,0,0-2.84-.44c-.53,0-.8,1.42-.8,4.26,0-.14,0,1.36.14,4.53a28,28,0,0,1-.14,4.41c-.08.47-.56.71-1.44.74-1.57,0-2.35.31-2.35.8s0,1.3.09,2.36.09,1.84.09,2.35,0,1-.09,1.8-.09,1.41-.09,1.81c0,.66.46,1,1.39,1a3.74,3.74,0,0,0,.48,0h.48c1.25,0,1.88.54,1.88,1.62,0,1.62-.07,4-.19,7.3s-.18,5.68-.18,7.3q0,8.13,10.63,8.13a21.44,21.44,0,0,0,10.51-2.61,4.38,4.38,0,0,0,1.22-.85,2.66,2.66,0,0,0,.22-1.34,30.62,30.62,0,0,1,.27-3.29,29.19,29.19,0,0,0,.28-3.35C217.78,43.85,217.52,43.58,217,43.58Z"/><path class="cls-1" d="M223.88,15.74A7.94,7.94,0,0,0,229,17.36q7.2,0,7.2-6.4A5.79,5.79,0,0,0,234,6.29a7.57,7.57,0,0,0-5-1.73,7.79,7.79,0,0,0-5,1.69A5.8,5.8,0,0,0,221.68,11,5.79,5.79,0,0,0,223.88,15.74Z"/><path class="cls-1" d="M223.26,55.16a42.61,42.61,0,0,0,5.66.22,42.35,42.35,0,0,0,5.63-.22c.61-.09.92-.4.92-.92q0-2.64-.11-8c-.08-3.54-.11-6.21-.11-8a149.91,149.91,0,0,1,.81-16.62c0-.37.07-.6.07-.7,0-.49-.29-.73-.88-.73s-1.78.06-3.2.18-2.49.19-3.2.19-1.77-.08-3.18-.22-2.46-.22-3.15-.22-1,.24-1,.73a7.31,7.31,0,0,0,.07.77,134.15,134.15,0,0,1,.81,16.62c0,1.72,0,4.28-.11,7.67s-.11,5.94-.11,7.63a4.07,4.07,0,0,0,.08,1.11C222.39,54.91,222.72,55.07,223.26,55.16Z"/><text class="cls-2" transform="translate(240.97 5.81)">TM</text></g></g></svg>