<?xml version="1.0" encoding="utf-8"?>
<!-- Generator: Adobe Illustrator 23.0.3, SVG Export Plug-In . SVG Version: 6.00 Build 0)  -->
<svg version="1.1" id="Layer_1" xmlns="http://www.w3.org/2000/svg" xmlns:xlink="http://www.w3.org/1999/xlink" x="0px" y="0px"
	 viewBox="0 0 1080 1080" style="enable-background:new 0 0 1080 1080;" xml:space="preserve">
<style type="text/css">
	.st0{fill:#FE2000;}
	.st1{fill:none;}
	.st2{fill:#FFFFFF;}
	.st3{font-family:'MyriadPro-Regular';}
	.st4{font-size:21.6944px;}
</style>
<g>
	<g>
		<polygon class="st0" points="528.9,963.4 541.7,963.4 541.7,936.6 564,936.6 564,926 541.7,926 541.7,907.8 565.9,907.8 
			565.9,897.1 528.9,897.1 		"/>
		<rect x="641.9" y="897.1" class="st0" width="12.8" height="66.4"/>
		<polygon class="st0" points="748,897.1 735.2,897.1 735.2,963.4 773.1,963.4 773.1,952.8 748,952.8 		"/>
		<path class="st0" d="M889,936.7c-1.2,3.5-2.1,6.5-2.8,9.1h-0.3c-0.4-2.6-1.3-5.6-2.5-9l-15.3-40.7h-18.2v65.4h11.5v-38.4
			c0-5.7-0.2-10.9-0.5-15.7h0.3c0.9,4.4,1.6,7.2,2,8.4l17.5,45.7h9.6l17.3-46.1c0.6-1.6,1.3-4.3,2-8h0.3c-0.4,6.1-0.5,10.6-0.5,13.6
			v40.5h12.5v-65.4h-17.7L889,936.7z"/>
		<path class="st0" d="M1024.3,923.9c-5.6-2.5-9.1-4.5-10.6-6c-1.5-1.5-2.3-3.2-2.3-5.1c0-2.3,1.1-4.2,3.3-5.5c2.2-1.3,5-2,8.6-2
			c6,0,11.1,1.5,15.3,4.4v-12.1c-3.8-1.7-9-2.5-15.7-2.5c-7.4,0-13.4,1.7-17.9,5c-4.6,3.3-6.8,7.9-6.8,13.8c0,4.1,1.2,7.6,3.7,10.7
			c2.4,3,6.4,5.8,11.8,8.2c6.4,2.7,10.4,4.9,12,6.6c1.7,1.7,2.5,3.5,2.5,5.5c0,2.3-1,4.1-3,5.5c-2,1.4-5,2.1-9,2.1
			c-6.7,0-12.6-2.1-17.8-6.4v13c4.6,2.5,10.6,3.7,18,3.7c7.9,0,14.1-1.6,18.5-4.9c4.4-3.2,6.6-7.9,6.6-14.1c0-4.3-1.2-7.9-3.7-11
			C1035.2,929.6,1030.7,926.7,1024.3,923.9z"/>
	</g>
	<path class="st0" d="M468.2,687.9h-39.8c5.9,1.9,11.4,4.4,16.6,7.4c16.7,9.7,25.1,23.1,25.1,40.2c0,19.7-8.9,34.7-26.8,44.9
		c10.6,3.6,18.9,9.5,25.1,17.9c6.2,8.4,9.3,18.1,9.3,29.1c0,19.9-8.2,35.3-24.7,46c-14,9.3-31.5,13.9-52.5,13.9
		c-16.2,0-29.5-1.1-39.9-3.4c-22.7-4.7-34.1-8.9-34.1-12.6c0-0.6,0.2-1.6,0.6-2.9c1.5-4,3.7-10,6.6-17.9c0.9-4,2.4-9.9,4.5-17.8
		c1-2.7,2.6-4,4.8-4c0,0.1,4.8,1.9,14.5,5.3c10,3.6,18.1,5.3,24.5,5.3c21.1,0,31.7-7,31.7-21.2c0-11.3-10-17-30.1-17
		c-2.7,0-6.2,0.1-10.7,0.3c-4.4,0.2-7.3,0.3-8.7,0.3c-6.6,0-10.2-0.1-10.8-0.2c-4.8-0.5-7.1-2.4-7.1-5.5c0-16.5,0.6-26.8,1.9-31
		c0.9-2.7,2.6-4,5.2-4c3.7,0,9.1,0.5,16.2,1.4s12.5,1.4,16.1,1.4c4.6,0,8.5-1.5,11.6-4.6c3.1-3.1,4.6-7,4.6-11.7
		c0-12.7-9.3-19.1-27.8-19.1c-7.8,0-18.3,2.1-31.5,6.3c-0.5,0.1-1,0.2-1.5,0.2c-1.4,0-2.6-1.5-3.5-4.5c-0.2-4.5-0.5-9.7-1-15.5
		c-0.1-1.3-0.4-3.9-1-7.8c-0.4-3.1-0.6-5.7-0.6-7.6c0-4.9,6.5-8.8,19.4-11.8h-21.1c-16.7,0-30.3,13.6-30.3,30.3v216.1
		c0,16.7,13.6,30.3,30.3,30.3h134.8c16.7,0,30.3-13.6,30.3-30.3V718.2C498.5,701.4,485,687.9,468.2,687.9z"/>
	<g>
		<path class="st0" d="M652.3,705.7c-11.3-11-26.1-16.8-44.6-17.4c-11.2-0.3-22.9-0.5-35.1-0.5c-20.7,0-34.1,0.4-40.1,1.2
			c-2.5,0.3-3.7,1.2-3.5,2.7l0.1,1.6c2.1,26.9,3.1,52.6,3.1,77c0,8.6-0.1,21.6-0.4,38.9c-0.3,17.3-0.4,30.3-0.4,38.9
			c0,2.3,1.1,3.4,3.4,3.4c4.7,0,11.9,0.1,21.3,0.4c9.5,0.3,16.6,0.4,21.3,0.4c1.6,0,2.4-0.9,2.4-2.7c0-3.5-0.4-8.8-1.1-15.9
			c-0.7-7.1-1.1-12.4-1.1-16c0-2.9,1.7-4.3,5-4.3c3.1,0,7.8,0.2,14.1,0.5c6.3,0.4,10.9,0.5,14.1,0.5c18.6,0,33.2-6.2,43.7-18.5
			c9.9-11.7,14.8-26.9,14.8-45.7C669.6,731.9,663.8,717.1,652.3,705.7z M597.7,777.7c-14,0-21-0.8-21-2.3c0-2.4-0.1-6-0.3-10.7
			c-0.2-4.7-0.3-8.3-0.3-10.7c0-16.9,0.3-25.9,0.8-26.9c0.6-1.4,7.2-2.1,19.6-2.1c17.7,0,26.5,9.1,26.5,27.2
			C623,769.2,614.6,777.7,597.7,777.7z"/>
		<path class="st0" d="M793.8,744.2c-3.3-1.1-8.9-2.4-16.6-4c-8.1-1.6-13.6-2.4-16.4-2.4c-1.2,0-2.3,1.9-3.2,5.7
			c-0.9,3.8-1.7,5.7-2.4,5.7c-0.2,0-0.5-0.2-0.8-0.6c-7.1-8.6-16.7-12.8-28.9-12.8c-17.6,0-31.4,5.7-41.5,17
			c-9.7,11-14.6,25.4-14.6,43.4c0,15.6,4.7,28.9,14.1,40.1c10,12,22.5,18,37.7,18c10,0,19.3-4.4,28-13.2c1-1,1.8-1.7,2.4-2
			c0.7,0.1,1.3,2.4,1.8,6.8c0.5,4.5,1.5,6.7,3,6.7c12.4,0,23.5-0.4,33.1-1.1c2.7-0.2,4.1-1.9,4.1-5c0-5.9-0.4-14.8-1.1-26.6
			c-0.7-11.8-1.1-20.7-1.1-26.7c0-15.7,1.2-30.6,3.7-44.7c0.2-1.3,0.4-2.1,0.4-2.4C795.5,745.3,794.9,744.7,793.8,744.2z
			 M747.6,810.4c-4.2,4.3-9.6,6.5-16.2,6.5c-6.2,0-11.5-2.3-15.9-6.8c-4.4-4.5-6.5-9.9-6.5-16.2c0-6.7,2.1-12.2,6.2-16.4
			c4.1-4.3,9.5-6.4,16.2-6.4c6.7,0,12.1,2.2,16.3,6.5c4.2,4.3,6.2,9.8,6.2,16.4C753.9,800.6,751.8,806.1,747.6,810.4z"/>
		<path class="st0" d="M886.4,845.3c2.1-1.2,3.4-2.1,3.8-2.7c0.5-0.6,0.7-2,0.7-4.3c0-2.2,0.3-5.7,0.9-10.4
			c0.6-4.7,0.9-8.3,0.9-10.6c0-1.7-0.8-2.6-2.4-2.6c-1.5,0-4,0.4-7.6,1.3c-3.6,0.9-6.4,1.3-8.3,1.3c-6.1,0-10.3-1.7-12.4-5
			c-1.5-2.5-2.2-7-2.2-13.5c0-1.8,0-4.5-0.1-8.3c0-3.7,0-6.4,0-8.3c0-3.4,0.6-5.1,1.8-5.1h8.7c1.6,0,4.2,0.1,7.8,0.2
			c3.7,0.1,6.3,0.2,7.8,0.2c2.3,0,3.4-0.8,3.4-2.4c0-1.9,0-4.6-0.1-8.2c-0.1-3.6-0.1-6.3-0.1-8.2c0-1.8,0.2-4.5,0.6-8
			c0.4-3.6,0.6-6.3,0.6-8c0-1.2-0.9-1.7-2.6-1.7c-2.8,0-7,0.1-12.5,0.4c-5.5,0.2-9.6,0.3-12.4,0.3c-2.3,0-3.4-1.9-3.4-5.7
			c0-3.2,0.3-7.9,0.8-14.2c0.5-6.3,0.8-11,0.8-14.1c0-1.2-1-1.8-2.9-2c-8-0.9-14-1.7-18-2.2c-1.7-0.2-4.8-0.7-9.2-1.7
			c-3.9-0.9-6.9-1.4-9-1.4c-1.7,0-2.6,4.5-2.6,13.5c0-0.5,0.2,4.3,0.5,14.3c0.2,6.4,0,11-0.5,14c-0.2,1.5-1.7,2.3-4.5,2.3
			c-5,0.2-7.5,1-7.5,2.6c0,1.6,0.1,4.1,0.3,7.5c0.2,3.3,0.3,5.8,0.3,7.5c0,1.2-0.1,3.1-0.3,5.7c-0.2,2.6-0.3,4.5-0.3,5.7
			c0,2.1,1.5,3.1,4.4,3.1c0.3,0,0.8,0,1.5-0.1c0.7,0,1.2,0,1.5,0c4,0,5.9,1.7,5.9,5.1c0,5.1-0.2,12.8-0.6,23.2
			c-0.4,10.3-0.6,18-0.6,23.2c0,17.2,11.2,25.8,33.7,25.8C865.2,853.6,876.3,850.9,886.4,845.3z"/>
		<path class="st0" d="M981.4,815c-1.5,0-4,0.4-7.5,1.3c-3.6,0.9-6.3,1.3-8.2,1.3c-6.1,0-10.1-1.6-12.2-4.9
			c-1.5-2.5-2.2-6.9-2.2-13.3c0-1.8,0-4.5-0.1-8.2c0-3.6,0-6.3,0-8.2c0-3.4,0.6-5.1,1.7-5.1h8.6c1.5,0,4.1,0.1,7.7,0.2
			c3.6,0.1,6.2,0.2,7.7,0.2c2.2,0,3.3-0.8,3.3-2.4c0-1.8,0-4.5-0.1-8c-0.1-3.5-0.1-6.2-0.1-8c0-1.8,0.2-4.4,0.6-7.9
			c0.4-3.5,0.6-6.2,0.6-7.9c0-1.1-0.8-1.7-2.5-1.7c-2.8,0-6.9,0.1-12.3,0.3c-5.4,0.2-9.5,0.3-12.2,0.3c-2.2,0-3.3-1.9-3.3-5.6
			c0-3.1,0.2-7.8,0.7-14c0.5-6.2,0.7-10.8,0.7-13.9c0-1.1-1-1.8-2.9-2c-7.9-0.9-13.8-1.6-17.7-2.2c-1.7-0.2-4.7-0.7-9.1-1.7
			c-3.8-0.9-6.8-1.4-8.9-1.4c-1.7,0-2.5,4.4-2.5,13.3c0-0.5,0.2,4.3,0.5,14.1c0.2,6.3,0,10.9-0.5,13.8c-0.2,1.5-1.7,2.2-4.5,2.3
			c-4.9,0.2-7.4,1-7.4,2.5c0,1.6,0.1,4.1,0.3,7.4c0.2,3.3,0.3,5.7,0.3,7.4c0,1.2-0.1,3.1-0.3,5.6c-0.2,2.5-0.3,4.4-0.3,5.6
			c0,2.1,1.5,3.1,4.4,3.1c0.3,0,0.8,0,1.5-0.1c0.7,0,1.2,0,1.5,0c3.9,0,5.9,1.7,5.9,5.1c0,5.1-0.2,12.7-0.6,22.8
			c-0.4,10.2-0.6,17.8-0.6,22.8c0,16.9,11.1,25.4,33.2,25.4c12,0,23-2.7,32.9-8.2c2.1-1.2,3.3-2,3.8-2.6c0.5-0.6,0.7-2,0.7-4.2
			c0-2.2,0.3-5.6,0.9-10.3c0.6-4.7,0.9-8.2,0.9-10.5C983.8,815.8,983,815,981.4,815z"/>
		<path class="st0" d="M1002.9,727.9c4.2,3.4,9.5,5.1,16,5.1c15,0,22.5-6.7,22.5-20c0-5.9-2.3-10.8-7-14.6
			c-4.4-3.6-9.5-5.4-15.5-5.4c-6.1,0-11.4,1.8-15.7,5.3c-4.8,3.8-7.1,8.7-7.1,14.7C996,719.3,998.3,724.3,1002.9,727.9z"/>
		<path class="st0" d="M1000.9,851.2c2.6,0.5,8.5,0.7,17.7,0.7c9.1,0,15-0.2,17.6-0.7c1.9-0.3,2.9-1.3,2.9-2.9
			c0-5.5-0.1-13.8-0.3-24.9c-0.2-11.1-0.3-19.4-0.3-25c0-19.7,0.8-37,2.5-52c0.2-1.1,0.2-1.9,0.2-2.2c0-1.5-0.9-2.3-2.8-2.3
			c-2.2,0-5.6,0.2-10,0.6c-4.4,0.4-7.8,0.6-10,0.6c-2.2,0-5.5-0.2-9.9-0.7c-4.4-0.5-7.7-0.7-9.8-0.7c-2.1,0-3.1,0.8-3.1,2.3
			c0,0.4,0.1,1.2,0.2,2.4c1.7,12.9,2.5,30.2,2.5,52c0,5.4-0.1,13.4-0.3,24c-0.2,10.6-0.3,18.6-0.3,23.9c0,2,0.1,3.1,0.2,3.4
			C998.2,850.4,999.2,850.9,1000.9,851.2z"/>
	</g>
	<path d="M369.7,417.4c-2.4-3.2-5.3-5.8-8.5-8c-2.7-1.8-5.5-3.2-8.5-4.5c-3.2-1.3-6.4-2.6-9.5-4c-8.6-3.7-17.1-7.7-25.5-11.9
		c-1.7-0.9-3.4-1.7-5.1-2.5c-0.4-0.2-1,0.1-1.1,0.5c-0.3,1.4-0.6,2.8-0.9,4.2c-1.7,8.6-3.7,17.2-6.2,25.6c-1.3,4.6-2.7,9.1-4.1,13.6
		c-1.4,4.6-2.2,9.2-2.4,14.1c0,3.8,0.5,7.5,1.9,11.1c2.7,6.8,9.1,12,17.8,11.8c5.2-0.1,10-1.8,14.3-4.9c2.1-1.5,4-3.3,5.7-5.3
		c0.7-0.8,1.4-1.6,2.2-2.3c0.1-0.1,0.5,0,0.6,0.1c0.2,0.2,0.5,0.6,0.6,0.9c0.5,1.9,1,3.9,1,6c0,2.6-0.1,5.2-0.4,7.8
		c-0.3,2.5-0.4,5-0.6,7.4c0,0.2,0.6,0.6,0.8,0.5c0.2-0.1,0.5-0.1,0.7-0.2c7.1-3.4,14.2-6.7,21.2-10.1c0.3-0.2,0.6-0.3,0.9-0.6
		c0.1-0.1,0.1-0.5,0-0.6c-0.4-0.4-0.9-0.8-1.4-1.1c-2.5-1.6-5-3.2-7.5-4.8c-1.6-1.1-3.1-2.2-4.6-3.4c-1.6-1.3-2.9-2.8-4-4.5
		c-0.3-0.4,0-1.1,0.5-1.1c2.4,0,4.7-0.2,7.1-0.7c6.2-1.1,11.4-4.1,15.3-9c3.4-4.2,4.6-9,3.9-14.4
		C373.3,423.5,371.9,420.3,369.7,417.4z"/>
	<path class="st0" d="M879.4,324.3c-10.6-16.9-18.1-35-22.1-54.5c-0.2-1-0.5-2.1-0.8-3.1c0-0.1-0.5-0.2-0.6-0.2
		c-0.8,0.7-1.6,1.4-2.4,2.1c-11.5,11.9-24.5,21.7-39,29.6c-3.4,1.9-7,3.6-10.5,5.3c-0.6,0.3-1.3,0.5-1.8,1.3
		c1.7,3.2,3.9,6.2,5.6,9.4c1.7,3.2,3.6,6.5,5.2,9.8c1.6,3.3,3.1,6.7,4.5,10.1c1.4,3.4,2.6,6.9,3.8,10.4c1.2,3.5,2.2,7,3.1,10.6
		c0.9,3.6,1.7,7.2,2.5,10.7c0.3,0,0.6,0,0.8-0.1c0.6-0.5,1.2-1.1,1.8-1.7c14-14.5,30.2-26,48.5-34.6
		C882.1,327.5,881.8,328.1,879.4,324.3z"/>
	<path class="st0" d="M595.7,278.2c-2.4-0.8-4.8-1.2-7.3-1.3c-3.8-0.1-7.3,0.8-10.5,2.9c-1.9,1.3-3.6,2.8-5,4.5
		c-1.6,1.9-3.1,3.9-4.4,6.1c-0.5,0.8-1,1.6-1.5,2.3c-0.8,0-1.2-0.5-1.5-1c-1.8-2.1-3.7-4-5.9-5.7c-2.4-1.8-4.9-3.3-7.8-4.2
		c-2.2-0.7-4.4-1.2-6.7-0.9c-1.9,0.2-3.8,0.6-5.5,1.3c-6.5,2.5-11.4,6.8-14,13.4c-2,5.1-2.4,10.4-1.4,15.8c1,5.8,3.7,10.7,7.4,15.2
		c1.9,2.3,4.1,4.3,6.4,6.1c2.9,2.3,6,4.3,9.1,6.3c3.5,2.2,7.1,4.3,10.6,6.5c4.9,3,9.5,6.2,13.8,10.1c0.3,0.3,0.8,0.5,1.2,0.8
		c1-0.6,1.7-1.5,2.4-2.2c7.3-7.5,14.5-15.1,22-22.4c2.6-2.6,5.1-5.3,7.5-8.1c1.3-1.5,2.5-3.2,3.5-4.9c2.1-3.4,3.5-7,4-11
		c0.8-6.5-0.3-12.8-3.4-18.6C605.8,283.8,601.4,280.1,595.7,278.2z"/>
	<path class="st1" d="M469.7,573.1c-5.2-11.2-10.4-22.4-15.6-33.6c-28.2-60.8-56.4-121.5-84.7-182.3c-2.3-5-4.6-9.9-6.9-14.9
		c-0.3-0.5-0.6-1-1.3-1.4c-1.2,0.6-2.5,1.1-3.8,1.7c-81.4,37.8-162.9,75.6-244.3,113.5c-4.6,2.1-4.2,1.2-2.1,5.8
		c23.9,51.6,47.9,103.2,71.9,154.8c11.4,24.5,22.7,48.9,34.1,73.4c0.5,1.1,1,2.1,1.5,3.2c0.2,0.3,0.9,0.6,1.3,0.4
		c1-0.4,2-0.8,2.9-1.3c64.8-30.1,129.7-60.2,194.5-90.3c16.7-7.8,33.4-15.5,50.1-23.3c1-0.4,1.9-0.9,2.9-1.4c0.7-0.4,0.9-1,0.6-1.8
		C470.5,574.8,470.1,573.9,469.7,573.1z"/>
	<path class="st1" d="M218.4,720.7c-0.3-0.5-0.6-1-1-1.5c-1-1.1-2.2-1.4-3.5-1.1c-0.7,0.2-1.3,0.4-2,0.7
		c-7.7,3.5-15.3,7.1-22.9,10.6c-0.8,0.4-1.6,0.9-2.4,1.5c-0.7,0.5-1,1.3-0.9,2.7c0.1,0.3,0.3,1.2,0.6,1.9c3,6.6,6.1,13.1,9.1,19.7
		c0.2,0.3,0.3,0.6,0.5,1c0.2,0.3,0.4,0.6,0.6,0.9c0.9,1.1,2.2,1.5,3.5,1.1c0.8-0.3,1.6-0.6,2.3-0.9c7-3.2,14-6.5,21-9.7
		c0.7-0.4,1.5-0.7,2.2-1.1c0.5-0.3,1-0.6,1.5-1c1.2-1,1.6-2.4,1.1-3.8c-0.3-0.9-0.7-1.8-1.1-2.6c-2.5-5.5-5.1-11-7.7-16.4
		C219,722,218.8,721.3,218.4,720.7z"/>
	<path class="st1" d="M169,623c0.4-0.2,0.8-0.5,1.2-0.8c0.7-0.7,1.5-1.8,0.9-3.2c-0.3-0.7-0.5-1.3-0.8-2c-2.9-6.2-5.8-12.5-8.7-18.7
		c-0.2-0.5-0.5-1.1-0.8-1.6c-0.8-1.4-2.1-1.9-3.6-1.5c-0.9,0.2-1.8,0.6-2.7,1c-7.4,3.4-14.9,6.9-22.3,10.4c-0.7,0.4-1.5,0.7-2.2,1.2
		c-1.2,0.7-1.7,2-1.3,3.4c0.3,0.9,0.6,1.8,1,2.6c2.2,4.7,4.4,9.5,6.7,14.2c0.6,1.4,1.2,2.8,1.9,4.2c0.4,0.7,0.8,1.4,1.3,2.1
		c0.5,0.7,1.3,1,2.2,1c1.1,0.1,2.1-0.5,3-0.9c7.4-3.5,14.9-6.9,22.3-10.4C167.7,623.6,168.3,623.4,169,623z"/>
	<path class="st1" d="M197.2,684.8c0.4-0.2,0.8-0.5,1.2-0.8c1.2-0.9,1.7-2.4,1.2-3.8c-0.2-0.7-0.5-1.3-0.8-2c-2.8-6-5.6-12-8.4-18.1
		c-0.4-0.7-0.7-1.5-1.2-2.2c-0.8-1.3-2.2-1.8-3.7-1.4c-0.9,0.3-1.8,0.7-2.6,1.1c-5.7,2.6-11.4,5.3-17.1,7.9
		c-1.8,0.8-3.7,1.6-5.5,2.5c-0.7,0.4-1.5,0.8-2.1,1.3c-0.7,0.5-1,1.3-1,2.2c-0.1,1,0.3,1.9,0.7,2.7c3,6.5,6,12.9,9,19.4
		c0.3,0.6,0.6,1.3,1.1,1.8c0.8,1.1,1.9,1.5,3.1,1.2c0.9-0.2,1.8-0.6,2.7-1c7.1-3.3,14.2-6.6,21.3-9.9
		C195.7,685.6,196.5,685.2,197.2,684.8z"/>
	<path class="st1" d="M140.3,561.7c0.4-0.2,0.8-0.5,1.2-0.8c0.9-0.9,1.3-2,1-3.2c-0.1-0.5-0.3-0.9-0.4-1.4c-0.2-0.6-0.5-1.1-0.7-1.6
		c-2.6-5.7-5.3-11.4-8-17.1c-0.4-1-0.9-1.9-1.6-2.8c-0.9-1.1-2.1-1.6-3.5-1.2c-0.9,0.3-1.8,0.6-2.6,1.1c-2.6,1.2-5.2,2.4-7.7,3.6
		c-4.8,2.3-9.7,4.5-14.5,6.7c-0.8,0.4-1.7,0.9-2.4,1.4c-0.7,0.5-1,1.3-1,2.2c0,0.9,0.3,1.8,0.7,2.7c3,6.4,6,12.9,9,19.4
		c0.3,0.6,0.7,1.3,1.1,1.8c0.8,1.1,2.2,1.6,3.5,1.2c1.1-0.4,2.2-0.9,3.3-1.4c6.9-3.2,13.8-6.4,20.7-9.6
		C138.8,562.4,139.6,562.1,140.3,561.7z"/>
	<path class="st1" d="M640.6,193.5c0.2-1.3-0.4-2.7-1.6-3.3c-0.7-0.4-1.5-0.7-2.3-1c-8.1-2.4-16.1-4.8-24.2-7.2
		c-0.7-0.2-1.4-0.3-2.1-0.4c-1.7-0.2-3,0.6-3.8,2c-0.5,0.9-0.9,2-1.2,3c-1.7,6.3-3.5,12.6-5.2,18.9c-0.2,0.7-0.3,1.4-0.4,2.1
		c-0.2,1.6,0.5,2.8,1.9,3.5c0.6,0.3,1.3,0.5,2,0.7c2.6,0.8,5.3,1.5,7.9,2.3c5.4,1.7,10.9,3.3,16.3,4.9c0.9,0.3,1.8,0.5,2.8,0.5
		c1.1,0,2-0.5,2.7-1.4c0.3-0.4,0.5-0.8,0.7-1.3c0.3-0.7,0.4-1.4,0.6-2c1.8-6.4,3.5-12.8,5.3-19.2
		C640.2,194.9,640.4,194.2,640.6,193.5z"/>
	<path class="st1" d="M502.2,543.1c1.4-0.9,1.9-2.5,1.4-4.1c-0.3-0.8-0.6-1.5-1-2.3c-1.3-2.8-2.6-5.6-3.9-8.4
		c-1.4-3.1-2.9-6.2-4.3-9.4c-0.4-0.8-0.9-1.7-1.4-2.4c-0.6-0.8-1.5-1.2-2.9-1.2c-0.3,0.1-1,0.2-1.7,0.4c-1,0.4-1.9,0.9-2.9,1.3
		c-6.3,2.9-12.7,5.9-19,8.8c-1,0.4-2,0.9-2.9,1.3c-0.5,0.3-1,0.6-1.5,1c-1,0.9-1.3,2-0.9,3.2c0.3,0.9,0.7,1.8,1.1,2.6
		c2.7,5.9,5.5,11.8,8.2,17.7c0.4,0.8,0.7,1.5,1.2,2.2c0.8,1.2,2,1.7,3.4,1.4c0.8-0.2,1.6-0.5,2.3-0.8c7.7-3.6,15.5-7.2,23.2-10.8
		C501.1,543.7,501.7,543.4,502.2,543.1z"/>
	<path class="st1" d="M517.8,576.9c-0.7,0.2-1.3,0.5-2,0.8c-7.4,3.4-14.9,6.9-22.3,10.4c-0.7,0.3-1.5,0.7-2.2,1.1
		c-1.6,1-2.1,2.6-1.5,4.3c0.3,0.7,0.5,1.3,0.8,2c0.5,1.1,1,2.1,1.5,3.2c2.2,4.7,4.4,9.5,6.6,14.2c0.5,1,0.9,1.9,1.5,2.8
		c0.7,1.1,2.2,1.6,3.4,1.3c0.7-0.2,1.4-0.4,2-0.7c7.9-3.6,15.7-7.3,23.6-10.9c0.6-0.3,1.3-0.7,1.8-1.1c0.8-0.6,1.2-1.5,1.1-3
		c-0.1-0.4-0.3-1.2-0.6-1.9c-3-6.5-6-12.9-9-19.4c-0.3-0.6-0.7-1.3-1.1-1.8C520.7,577,519.3,576.5,517.8,576.9z"/>
	<path class="st1" d="M657.1,287.5c4.5-0.4,9-0.8,13.5-1.2c2-0.2,4-0.3,6-0.6c2-0.2,3.2-1.6,3.2-3.6c0-0.9-0.1-1.9-0.1-2.8
		c-0.1-1.8-0.3-3.5-0.4-5.3c-0.3-4.5-0.5-9-0.8-13.5c-0.1-0.8-0.2-1.6-0.4-2.4c-0.6-2-1.9-3-3.9-3c-2,0-4,0.2-6,0.3
		c-4.4,0.3-8.7,0.7-13.1,1.1c-2.8,0.3-5.7,0.5-8.5,0.7c-0.5,0.1-0.9,0.1-1.4,0.3c-1.3,0.4-2.2,1.5-2.3,2.9c-0.1,1.4,0,2.9,0,4.3
		c0,0,0.1,0,0.1,0c0.3,4.9,0.6,9.7,0.9,14.6c0.1,1.6,0.3,3.3,0.4,5c0.1,0.5,0.1,1,0.2,1.4c0.3,1.3,1.4,2.3,2.7,2.5
		c0.7,0.1,1.4,0.1,2.1,0.1C651.9,287.9,654.5,287.7,657.1,287.5z"/>
	<path class="st1" d="M112.4,499.8c0.4-0.2,0.8-0.5,1.1-0.9c0.7-0.8,1-1.7,0.6-2.6c-0.2-0.7-0.5-1.4-0.8-2
		c-2.9-6.2-5.8-12.5-8.8-18.7c-0.4-0.7-0.8-1.5-1.3-2.1c-1-1.3-2.6-1.8-4.1-1.3c-1,0.4-2,0.8-2.9,1.3c-3.2,1.5-6.4,3.1-9.7,4.4
		c-4.1,1.7-8,3.6-12,5.4c-0.7,0.3-1.4,0.8-2,1.4c-0.8,0.6-1.1,1.5-1.1,2.9c0,0.7,0.3,1.7,0.8,2.7c3,6.3,5.9,12.7,8.9,19
		c0.3,0.6,0.7,1.2,1.1,1.8c0.9,1.2,2.4,1.6,3.9,1.1c1.1-0.4,2.2-0.9,3.3-1.4c6.9-3.2,13.7-6.5,20.6-9.8
		C110.7,500.7,111.6,500.3,112.4,499.8z"/>
	<path class="st1" d="M344.8,297.7c-0.3-3.9-0.5-7.8-0.8-11.7c-0.1-0.8-0.2-1.6-0.5-2.4c-0.5-1.7-1.7-2.5-3.4-2.6
		c-1.2-0.1-2.4,0.1-3.5,0.2c-3.5,0.3-7.1,0.5-10.6,0.8c-4.3,0.3-8.5,0.6-12.8,0.9c-0.6,0.1-1.2,0.1-1.7,0.3c-1.7,0.4-2.9,1.9-3,3.6
		c-0.1,1.1,0,2.1,0.1,3.2c0.2,2.1,0.4,4.2,0.5,6.4c0.3,4.1,0.6,8.3,0.9,12.4c0.1,0.8,0.2,1.7,0.4,2.5c0.5,1.7,1.6,2.6,3.3,2.7
		c1.1,0.1,2.1,0,3.2,0v-0.1c1.3-0.1,2.6-0.2,3.9-0.3c5.3-0.4,10.6-0.9,16-1.4c2-0.2,4-0.4,6-0.6c1.7-0.2,2.8-1.4,2.9-3.1
		c0-0.8,0-1.6-0.1-2.5C345.3,303.1,345,300.4,344.8,297.7z"/>
	<path class="st1" d="M362.8,326c16.4-7.6,32.7-15.2,49.1-22.8c1.2-0.5,2.4-1.1,3.6-1.6c0.8-0.4,1.4-0.2,1.8,0.6
		c0.6,1.2,1.1,2.4,1.7,3.5c24.5,52.7,48.9,105.3,73.4,158c8.1,17.4,16.2,34.9,24.3,52.3c0.5,1.2,1.1,2.3,1.7,3.4
		c1.1,0.4,2,0.3,2.9,0.2c3.9-0.3,7.8-0.6,11.7-0.9c4.4-0.3,8.8-0.7,13.2-1.1c4.5-0.3,9-0.6,13.5-1c3.5-0.3,7.1-0.6,10.7-0.8
		c4.6-0.4,9.2-0.7,13.8-1.1c4.4-0.3,8.8-0.6,13.2-1c3.3-0.3,6.6-0.5,9.9-0.8c4.9-0.4,9.7-0.8,14.6-1.1c4.3-0.3,8.5-0.6,12.8-1
		c4.7-0.4,9.5-0.8,14.2-1.1c3.3-0.2,3.3-0.2,3-3.6c-0.4-4.3-0.7-8.5-1.1-12.8c-0.3-4.5-0.6-9-1-13.5c-0.3-3.6-0.5-7.1-0.8-10.7
		c-0.4-4.4-0.7-8.8-1.1-13.2c-0.3-4.5-0.6-9-1-13.5c-0.3-3.7-0.6-7.3-0.8-11c-0.4-4.6-0.8-9.2-1.1-13.8c-0.3-4.4-0.6-8.8-1-13.2
		c-0.3-3.3-0.5-6.6-0.8-9.9c-0.4-4.4-0.7-8.8-1.1-13.1c-0.3-4.5-0.6-9-1-13.5c-0.3-3.4-0.5-6.9-0.8-10.3c-0.4-4.4-0.7-8.8-1.1-13.2
		c-0.3-4.5-0.6-9-1-13.5c-0.3-3.5-0.5-7.1-0.8-10.7c-0.4-4.6-0.7-9.2-1.1-13.8c-0.3-4.4-0.6-8.8-1-13.2c-0.3-3.3-0.5-6.6-0.8-9.9
		c-0.4-4.6-0.8-9.2-1.1-13.8c-0.3-4.4-0.6-8.8-1-13.2c-0.1-1.8-0.3-3.5-0.5-5.3c-0.1-0.6-0.6-1.1-1.2-1c-2.2,0.1-4.5,0.2-6.8,0.4
		c-4.6,0.3-9.2,0.7-13.8,1.1c-4.4,0.3-8.8,0.6-13.2,1c-3.3,0.2-6.6,0.5-9.9,0.8c-4.6,0.4-9.2,0.7-13.9,1.1c-4.4,0.3-8.8,0.6-13.2,1
		c-3.2,0.2-6.4,0.5-9.6,0.7c-4.4,0.4-8.8,0.7-13.1,1.1c-4.5,0.3-9,0.6-13.5,1c-3.5,0.3-7.1,0.5-10.7,0.8c-4.7,0.4-9.5,0.8-14.2,1.1
		c-4.4,0.3-8.8,0.6-13.2,1c-3.3,0.3-6.6,0.5-9.9,0.8c-4.6,0.4-9.2,0.8-13.9,1.1c-4.4,0.3-8.8,0.6-13.2,1c-3.2,0.2-6.4,0.5-9.6,0.7
		c-4.4,0.4-8.8,0.7-13.1,1.1c-4.5,0.4-9,0.6-13.5,1c-3.7,0.3-7.3,0.6-11,0.9c-4.6,0.4-9.2,0.7-13.9,1.1c-4.4,0.3-8.8,0.6-13.2,1
		c-5.4,0.4-10.9,0.8-16.3,1.3c-1,0.1-1.9,0.2-2.8,0.3c-0.3,0-0.8,0.7-0.8,1c0.1,1.9,0.2,3.8,0.3,5.7c0.4,4.9,0.8,9.7,1.1,14.6
		c0.3,4.3,0.6,8.5,1,12.8c0.1,1.7,0.3,3.5,0.4,5.2l9.9-2.7L362.8,326z"/>
	<polygon class="st1" points="596.8,191.5 596.9,191.6 596.8,191.5 	"/>
	<path class="st1" d="M434,466.5c-1.3,0.8-1.8,2.3-1.3,3.7c0.2,0.6,0.4,1.1,0.7,1.7c0.6,1.3,1.2,2.6,1.8,3.9
		c2.2,4.9,4.5,9.7,6.7,14.5c0.4,1,1,1.9,1.6,2.8c0.5,0.7,1.3,1,2.4,1c0.7,0.1,1.6-0.4,2.5-0.8c3.2-1.5,6.4-3,9.7-4.5
		c4.3-2,8.6-4,12.9-6c0.7-0.3,1.5-0.7,2.2-1.1c1.8-1,2.4-2.6,1.7-4.5c-0.2-0.6-0.4-1.1-0.7-1.6c-2.8-6-5.6-12.1-8.4-18.1
		c-0.3-0.6-0.6-1.3-1-1.9c-0.9-1.4-2.3-2-4-1.5c-0.7,0.2-1.3,0.5-2,0.8c-7.6,3.5-15.1,7-22.6,10.5C435.4,465.7,434.7,466,434,466.5z
		"/>
	<path class="st1" d="M376.2,348.8c2.8,6.3,5.7,12.5,8.5,18.8c0.3,0.6,0.6,1.3,1,1.9c1,1.6,2.6,2.2,4.3,1.6c0.8-0.3,1.5-0.6,2.3-1
		c4.2-2,8.3-4,12.5-6c3.2-1.5,6.4-3,9.7-4.5c0.8-0.4,1.7-0.9,2.4-1.4c1.1-0.8,1.5-2.2,1.1-3.5c-0.3-0.8-0.6-1.5-1-2.3
		c-2.5-5.6-5-11.3-7.5-16.9c-0.3-0.8-0.7-1.5-1.1-2.2c-0.4-0.6-0.8-1.2-1.3-1.7c-0.7-0.7-1.6-1-2.6-1c-1.1-0.1-2.1,0.4-3,0.8
		c-7.6,3.6-15.2,7.2-22.8,10.8c-0.6,0.3-1.3,0.7-1.8,1.1c-1.2,0.8-1.6,2.1-1.3,3.4C375.6,347.5,375.9,348.2,376.2,348.8z"/>
	<path class="st1" d="M406.6,403.9c-0.5,0.3-1,0.6-1.4,1c-1.1,1-1.4,2.2-1.1,3.6c0.1,0.6,0.4,1.1,0.6,1.7c3,6.4,6,12.9,9,19.4
		c0.3,0.5,0.5,1.1,0.9,1.5c0.3,0.4,0.6,0.7,1,1c0.5,0.3,1.1,0.4,1.5,0.6c0.5-0.1,0.9-0.1,1.2-0.2c0.7-0.2,1.3-0.5,2-0.8
		c7.7-3.5,15.3-7.1,22.9-10.6c0.6-0.3,1.3-0.7,1.9-1.1c1.4-1,1.9-2.5,1.3-4.1c-0.4-1.1-0.8-2.2-1.4-3.3c-2.4-5.3-4.9-10.5-7.4-15.8
		c-0.3-0.6-0.6-1.3-0.9-1.9c-0.2-0.4-0.5-0.8-0.8-1.2c-1.1-1.3-2.6-1.8-4.1-1.3c-0.9,0.3-1.8,0.7-2.6,1.1
		c-6.9,3.2-13.8,6.3-20.7,9.5C407.8,403.3,407.2,403.6,406.6,403.9z"/>
	<polygon class="st1" points="596.8,191.7 596.8,191.8 596.8,191.7 596.8,191.8 	"/>
	<path class="st1" d="M903.8,478.4c-0.8-0.3-1.6-0.5-2.4-0.7c-3-0.8-5.9-1.7-8.9-2.5c-4.8-1.4-9.6-2.7-14.3-4.2
		c-1-0.3-2.1-0.6-3.6-0.5c-0.7,0-1.6,0.5-2.1,1.5c-0.4,0.7-0.7,1.5-0.9,2.3c-2,6.7-3.9,13.4-5.9,20.1c-0.1,0.5-0.3,0.9-0.3,1.4
		c-0.2,1.7,0.5,3.1,2,3.8c0.7,0.3,1.5,0.6,2.3,0.8c1.9,0.6,3.9,1.1,5.8,1.7c5.9,1.7,11.8,3.4,17.8,5.2c1,0.3,2.1,0.6,3.1,0.5
		c1.2-0.1,2.1-0.6,2.6-1.6c0.4-0.7,0.6-1.5,0.9-2.3c1.9-6.6,3.8-13.2,5.7-19.8c0.2-0.6,0.3-1.2,0.4-1.7
		C906.3,480.3,905.6,479,903.8,478.4z"/>
	<path class="st1" d="M923.1,413.5c-0.7-0.3-1.3-0.5-2-0.7c-8-2.3-15.9-4.6-23.9-6.9c-0.9-0.3-1.8-0.5-2.8-0.6
		c-1.3-0.2-2.7,0.6-3.2,1.7c-0.4,0.7-0.6,1.5-0.8,2.3c-1.9,6.5-3.8,13-5.7,19.5c-0.2,0.7-0.4,1.4-0.5,2.1c-0.3,1.3,0.4,2.7,1.6,3.3
		c0.7,0.4,1.5,0.6,2.3,0.9c8.3,2.4,16.6,4.8,24.9,7.2c0.6,0.2,1.1,0.3,1.3,0.4c1.7,0.2,3.1-0.5,3.6-1.7c0.4-0.8,0.7-1.8,1-2.7
		l5.3-18.4c0.3-0.9,0.5-1.8,0.7-2.8C925.2,415.5,924.5,414.1,923.1,413.5z"/>
	<path class="st1" d="M885.2,543.5c-0.9-0.4-1.8-0.6-2.7-0.9c-4.3-1.2-8.7-2.4-13-3.7c-3.4-1-6.8-2-10.2-3c-0.9-0.3-1.8-0.5-2.7-0.5
		c-1.2,0.1-2.4,0.7-2.9,1.8c-0.4,0.7-0.7,1.5-0.9,2.3c-1.9,6.5-3.8,13-5.6,19.5c-0.2,0.7-0.3,1.4-0.4,2.1c-0.1,1.6,0.5,2.8,1.8,3.5
		c0.4,0.2,0.8,0.4,1.3,0.6c0.8,0.3,1.6,0.5,2.4,0.7c7.4,2.2,14.8,4.3,22.2,6.4c0.7,0.2,1.4,0.4,2.1,0.5c1.8,0.4,3.3-0.4,4-2.1
		c0.4-0.9,0.6-1.8,0.9-2.7c1.7-6,3.5-12.1,5.2-18.1c0.2-0.8,0.5-1.6,0.6-2.4C887.6,545.8,886.8,544.2,885.2,543.5z"/>
	<path class="st1" d="M959.9,282.4c-0.9-0.4-1.8-0.6-2.7-0.9c-4-1-7.9-2.3-12-3.3c-3.3-0.8-6.6-1.9-9.9-2.8c-1-0.3-2.1-0.5-2.7-0.6
		c-1.8,0.1-3,0.5-3.6,1.8c-0.4,0.7-0.7,1.5-0.9,2.3c-0.6,1.9-1.1,3.9-1.7,5.8c-1.4,4.7-2.8,9.3-4.1,14c-0.2,0.8-0.4,1.6-0.5,2.4
		c-0.1,1.2,0.5,2.1,1.5,2.6c0.7,0.4,1.5,0.7,2.3,0.9c8.1,2.4,16.1,4.8,24.2,7.2c0.8,0.2,1.6,0.4,2.4,0.5c1.6,0.1,2.9-0.4,3.7-2.2
		c0.4-0.7,0.6-1.5,0.8-2.3c1.8-6.1,3.6-12.3,5.4-18.4c0.2-0.8,0.4-1.6,0.5-2.4C962.8,284.8,961.9,283.3,959.9,282.4z"/>
	<path class="st1" d="M665.3,354.7c5-0.4,9.9-0.8,14.9-1.2c0.6-0.1,1.2-0.1,1.8-0.2c1.7-0.4,2.9-1.7,3-3.5c0-0.8,0-1.6,0-2.5
		c-0.2-2.6-0.5-5.2-0.7-7.8c-0.3-3.9-0.6-7.8-0.8-11.7c-0.1-1-0.2-1.9-0.6-2.8c-0.6-1.3-1.6-2.1-3-2.2c-0.9-0.1-1.9-0.1-2.8,0
		c-3.3,0.2-6.6,0.5-9.9,0.7c-4.4,0.3-8.8,0.6-13.1,1c-1.1,0.1-2.1,0.3-3.1,0.5c-1.8,0.5-2.9,1.8-2.9,3.6c0,1.4,0.1,2.9,0.2,4.3
		c0.1,1.5,0.3,3.1,0.4,4.6c0.3,4.3,0.6,8.5,0.9,12.8c0.1,1.1,0.3,2.1,0.6,3.1c0.3,1.3,1.3,2,2.6,2.2c0.7,0.1,1.4,0.1,2.1,0
		C658.2,355.3,661.8,355,665.3,354.7z"/>
	<path class="st1" d="M866.5,608.8c-1.1-0.5-2.2-0.8-3.4-1.2c-7.3-2.1-14.6-4.2-21.9-6.3c-0.9-0.3-1.8-0.5-2.8-0.7
		c-1.6-0.3-3.1,0.5-3.8,2c-0.4,0.7-0.6,1.5-0.8,2.3c-1.9,6.2-3.7,12.5-5.5,18.8c-0.2,0.7-0.4,1.4-0.6,2.1c-0.4,1.8,0.4,3.4,2,4.1
		c0.4,0.2,0.9,0.4,1.3,0.5c1.1,0.3,2.3,0.6,3.4,1c7.1,2.1,14.1,4.2,21.1,6.3c0.9,0.3,1.8,0.5,2.8,0.6c1.5,0.2,2.7-0.6,3.4-2.1
		c0.3-0.7,0.5-1.3,0.7-2c1.8-6.5,3.7-13,5.5-19.5c0.3-0.9,0.4-1.9,0.5-2.3C868.4,610.4,867.8,609.3,866.5,608.8z"/>
	<path class="st1" d="M942.5,348.6c-0.5-0.3-1-0.6-1.6-0.8c-1.2-0.4-2.5-0.7-3.8-1.1c-7.1-2-14.1-4.1-21.2-6.1c-1-0.3-2-0.7-3-0.6
		c-1.3,0.1-2.2,0.6-2.7,1.5c-0.4,0.6-0.7,1.3-0.9,1.9c-2,6.8-4,13.7-6,20.5c-0.2,0.7-0.3,1.4-0.3,2.1c-0.1,1.5,0.6,2.5,1.9,3.1
		c0.6,0.3,1.3,0.5,2,0.7c8,2.3,15.9,4.6,23.9,6.9c0.8,0.2,1.6,0.4,2.4,0.6c1.5,0.3,2.8-0.5,3.5-1.9c0.2-0.5,0.4-1.1,0.6-1.7
		c2-7,4-13.9,6-20.8c0.2-0.7,0.3-1.4,0.3-2.1C943.8,350,943.3,349.1,942.5,348.6z"/>
	<path class="st1" d="M704.2,597.7c-0.1-0.5-0.1-1-0.2-1.4c-0.4-1.7-1.8-2.9-3.6-3c-0.9,0-1.9,0.1-2.8,0.2c-1.3,0.1-2.6,0.3-3.9,0.4
		c-6.9,0.5-13.7,1-20.6,1.5c-0.5,0-0.9,0.1-1.4,0.2c-1.9,0.5-3.1,1.9-3.2,3.8c-0.1,1.4,0,2.8,0.1,4.3c0.5,5.4,1,10.9,1.5,16.3
		c0.1,1.2,0.3,2.4,0.5,3.5c0.3,1.5,1.4,2.5,3,2.6c1.1,0.1,2.1,0,2.7,0c3.5-0.3,6.4-0.5,9.4-0.7c4.7-0.3,9.5-0.6,14.2-0.9
		c1.2-0.1,2.4-0.3,3.5-0.6c1.2-0.3,2-1.2,2.4-2.4c0.3-0.9,0.3-1.8,0.2-2.8C705.4,611.6,704.8,604.6,704.2,597.7z"/>
	<polygon class="st1" points="686,267.6 686,267.8 686,267.9 686,267.6 	"/>
	<polygon class="st1" points="685.9,267.6 685.9,267.7 685.9,267.6 685.9,267.6 	"/>
	<path class="st1" d="M670.7,422.1c4.6-0.4,9.2-0.6,13.8-1c0.7-0.1,1.4-0.1,2.1-0.2c0.6-0.1,1.2-0.3,1.7-0.5c0.8-0.4,1.4-1,1.5-1.9
		c0.1-0.7,0.2-1.4,0.2-2.1c0-1-0.1-1.9-0.2-2.8c0,0,0,0,0.1,0c-0.2-3-0.5-5.9-0.7-8.9c-0.3-3.3-0.5-6.6-0.8-9.9
		c-0.1-0.6-0.2-1.2-0.3-1.7c-0.4-1.4-1.7-2.4-3.2-2.4c-1.3,0-2.6,0.1-3.9,0.2c-1.6,0.1-3.3,0.3-5,0.5c-4.6,0.3-9.2,0.7-13.8,1
		c-1.8,0.1-3.6,0.3-5.3,0.4c-0.5,0-1,0.1-1.4,0.2c-1.2,0.3-2.1,1.1-2.4,2.4c-0.2,0.8-0.2,1.6-0.1,2.5c0.4,5.8,0.9,11.6,1.3,17.4
		c0.1,1.4,0.3,2.8,0.4,4.3c0,0.4,0.1,0.7,0.2,1.1c0.3,1.4,1.2,2.3,2.6,2.5c0.8,0.1,1.6,0.1,2.5,0
		C663.6,422.7,667.2,422.4,670.7,422.1z"/>
	<path class="st1" d="M665.3,490.7c0.9-0.1,1.9-0.2,2.8-0.2c0,0,0,0,0,0c1.4-0.1,2.9-0.2,4.3-0.3c5.7-0.4,11.4-0.9,17.1-1.3
		c0.9-0.1,1.9-0.2,2.8-0.4c1.7-0.4,2.9-1.2,3.1-3.8c0-0.6-0.1-1.2-0.1-1.8c-0.1-1.9-0.3-3.8-0.4-5.7c-0.3-4.1-0.6-8.3-0.9-12.4
		c-0.1-1.1-0.2-2.1-0.4-3.2c0-0.4-0.1-0.7-0.2-1c-0.3-1.3-1.5-2.3-2.8-2.4c-0.8-0.1-1.7-0.1-2.5,0c-3.1,0.2-6.2,0.5-9.2,0.7
		c-4.7,0.3-9.5,0.6-14.2,1c-0.8,0.1-1.6,0.1-2.5,0.3c-0.6,0.1-1.2,0.2-1.7,0.4c-1.1,0.4-1.8,1.1-2,2.3c-0.1,0.9-0.1,1.9-0.1,2.8
		c0.3,4.4,0.6,8.8,1,13.1c0.2,2.7,0.4,5.4,0.7,8.2c0.2,2.6,1.6,3.8,4.3,3.7C664.6,490.8,665,490.7,665.3,490.7z"/>
	<path class="st1" d="M848.5,511.5c0.2-0.5,0.4-1.1,0.5-1.7c8.8-30.2,17.5-60.5,26.2-90.7c12.5-43.2,25-86.5,37.5-129.7
		c2.4-8.2,4.7-16.4,7.1-24.6c0.1-0.4,0.3-0.9,0.4-1.4c0.1-0.4-0.2-1-0.6-1.2c-0.7-0.2-1.3-0.5-2-0.7c-9.5-2.7-18.9-5.5-28.4-8.2
		c-35.8-10.3-71.7-20.7-107.5-31c-33.3-9.6-66.6-19.3-100-28.9c-8.9-2.6-17.8-5.1-26.7-7.7c-0.4-0.1-0.9-0.2-1.4-0.3
		c-0.2,0-0.5,0.1-0.6,0.3c-0.3,0.8-0.7,1.5-0.9,2.3c-4.4,15.3-8.8,30.6-13.2,45.9c-0.2,0.6-0.5,1.1-0.3,1.7c0.1,0.2,0.3,0.4,0.4,0.5
		c0.2,0.1,0.5,0.1,0.7,0.1c5.8-0.4,11.6-0.8,17.4-1.3c5.7-0.4,11.4-0.9,17.1-1.3c4.4-0.4,8.8-0.7,13.1-1.1c3-0.2,5.9-0.4,8.9-0.6
		c0.1,0,0.3,0,0.3,0.1c0.3,0.2,0.7,0.4,0.8,0.6c0.2,0.4,0.2,0.9,0.2,1.4c0.3,4.2,0.6,8.3,0.9,12.5c0.3,3.5,0.5,7.1,0.8,10.7
		c0.4,4.5,0.7,9,1.1,13.5c0.3,4.5,0.6,9,1,13.5c0.2,3.3,0.5,6.6,0.8,9.9c0.4,4.4,0.7,8.8,1.1,13.1c0.3,4.5,0.6,9,1,13.5
		c0.3,3.7,0.6,7.3,0.9,11c0.4,4.6,0.7,9.2,1.1,13.8c0.3,4.4,0.6,8.8,1,13.2c0.2,3.3,0.5,6.6,0.8,10c0.4,4.6,0.7,9.2,1.1,13.8
		c0.3,4.4,0.6,8.8,1,13.2c0.2,3.2,0.5,6.4,0.7,9.6c0.4,4.5,0.8,9,1.1,13.5c0.3,4.5,0.6,9,1,13.5c0.3,3.4,0.5,6.9,0.8,10.3
		c0.4,4.6,0.8,9.2,1.1,13.8c0.3,4.4,0.6,8.8,1,13.2c0.1,1.2,0.2,2.4,0.4,3.5c0.1,0.8,0.4,1.3,1.2,1.5c4.8,1.4,9.6,2.8,14.4,4.2
		c37.5,10.8,75.1,21.7,112.6,32.5c1.1,0.3,2.3,0.6,3.4,0.9C848.1,512.1,848.4,511.8,848.5,511.5z"/>
	<path class="st1" d="M671,558.4c8.5-0.6,16.2-1.2,23.9-1.8c1.1-0.1,2.1-0.2,3.2-0.5c1.3-0.3,2.3-1.4,2.5-2.7c0.1-0.8,0.1-1.7,0-2.5
		c-0.2-2.4-0.4-4.7-0.6-7.1c-0.3-4.3-0.6-8.5-0.9-12.8c-0.1-1.1-0.2-2.1-0.6-3.1c-0.4-0.9-1-1.5-2-1.9c-1-0.4-2.1-0.3-3.2-0.2
		c-4.5,0.4-9,0.7-13.5,1.1c-3.9,0.3-7.8,0.6-11.7,0.8c-1,0.1-1.9,0.3-2.7,0.7c-1,0.5-1.7,1.3-1.8,2.5c-0.1,1-0.1,1.9,0,2.9
		c0.2,2.2,0.4,4.5,0.6,6.7c0.3,4.4,0.6,8.8,0.9,13.1c0.1,0.7,0.1,1.4,0.3,2.1c0.4,1.7,1.5,2.6,3.3,2.7
		C669.7,558.4,670.8,558.4,671,558.4z"/>
	<path class="st1" d="M492.3,463.7c7.3,15.7,14.6,31.5,21.9,47.2h0C507,495.2,499.7,479.4,492.3,463.7z"/>
	<path class="st1" d="M657.1,287.5c4.5-0.4,9-0.8,13.5-1.2c2-0.2,4-0.3,6-0.6c2-0.2,3.2-1.6,3.2-3.6c0-0.9-0.1-1.9-0.1-2.8
		c-0.1-1.8-0.3-3.5-0.4-5.3c-0.3-4.5-0.5-9-0.8-13.5c-0.1-0.8-0.2-1.6-0.4-2.4c-0.6-2-1.9-3-3.9-3c-2,0-4,0.2-6,0.3
		c-4.4,0.3-8.7,0.7-13.1,1.1c-2.8,0.3-5.7,0.5-8.5,0.7c-0.5,0.1-0.9,0.1-1.4,0.3c-1.3,0.4-2.2,1.5-2.3,2.9c-0.1,1.4,0,2.9,0,4.3
		c0,0,0.1,0,0.1,0c0.3,4.9,0.6,9.7,0.9,14.6c0.1,1.6,0.3,3.3,0.4,5c0.1,0.5,0.1,1,0.2,1.4c0.3,1.3,1.4,2.3,2.7,2.5
		c0.7,0.1,1.4,0.1,2.1,0.1C651.9,287.9,654.5,287.7,657.1,287.5z"/>
	<path class="st1" d="M169,623c0.4-0.2,0.8-0.5,1.2-0.8c0.7-0.7,1.5-1.8,0.9-3.2c-0.3-0.7-0.5-1.3-0.8-2c-2.9-6.2-5.8-12.5-8.7-18.7
		c-0.2-0.5-0.5-1.1-0.8-1.6c-0.8-1.4-2.1-1.9-3.6-1.5c-0.9,0.2-1.8,0.6-2.7,1c-7.4,3.4-14.9,6.9-22.3,10.4c-0.7,0.4-1.5,0.7-2.2,1.2
		c-1.2,0.7-1.7,2-1.3,3.4c0.3,0.9,0.6,1.8,1,2.6c2.2,4.7,4.4,9.5,6.7,14.2c0.6,1.4,1.2,2.8,1.9,4.2c0.4,0.7,0.8,1.4,1.3,2.1
		c0.5,0.7,1.3,1,2.2,1c1.1,0.1,2.1-0.5,3-0.9c7.4-3.5,14.9-6.9,22.3-10.4C167.7,623.6,168.3,623.4,169,623z"/>
	<path class="st1" d="M140.3,561.7c0.4-0.2,0.8-0.5,1.2-0.8c0.9-0.9,1.3-2,1-3.2c-0.1-0.5-0.3-0.9-0.4-1.4c-0.2-0.6-0.5-1.1-0.7-1.6
		c-2.6-5.7-5.3-11.4-8-17.1c-0.4-1-0.9-1.9-1.6-2.8c-0.9-1.1-2.1-1.6-3.5-1.2c-0.9,0.3-1.8,0.6-2.6,1.1c-2.6,1.2-5.2,2.4-7.7,3.6
		c-4.8,2.3-9.7,4.5-14.5,6.7c-0.8,0.4-1.7,0.9-2.4,1.4c-0.7,0.5-1,1.3-1,2.2c0,0.9,0.3,1.8,0.7,2.7c3,6.4,6,12.9,9,19.4
		c0.3,0.6,0.7,1.3,1.1,1.8c0.8,1.1,2.2,1.6,3.5,1.2c1.1-0.4,2.2-0.9,3.3-1.4c6.9-3.2,13.8-6.4,20.7-9.6
		C138.8,562.4,139.6,562.1,140.3,561.7z"/>
	<path class="st1" d="M197.2,684.8c0.4-0.2,0.8-0.5,1.2-0.8c1.2-0.9,1.7-2.4,1.2-3.8c-0.2-0.7-0.5-1.3-0.8-2c-2.8-6-5.6-12-8.4-18.1
		c-0.4-0.7-0.7-1.5-1.2-2.2c-0.8-1.3-2.2-1.8-3.7-1.4c-0.9,0.3-1.8,0.7-2.6,1.1c-5.7,2.6-11.4,5.3-17.1,7.9
		c-1.8,0.8-3.7,1.6-5.5,2.5c-0.7,0.4-1.5,0.8-2.1,1.3c-0.7,0.5-1,1.3-1,2.2c-0.1,1,0.3,1.9,0.7,2.7c3,6.5,6,12.9,9,19.4
		c0.3,0.6,0.6,1.3,1.1,1.8c0.8,1.1,1.9,1.5,3.1,1.2c0.9-0.2,1.8-0.6,2.7-1c7.1-3.3,14.2-6.6,21.3-9.9
		C195.7,685.6,196.5,685.2,197.2,684.8z"/>
	<path class="st1" d="M218.4,720.7c-0.3-0.5-0.6-1-1-1.5c-1-1.1-2.2-1.4-3.5-1.1c-0.7,0.2-1.3,0.4-2,0.7
		c-7.7,3.5-15.3,7.1-22.9,10.6c-0.8,0.4-1.6,0.9-2.4,1.5c-0.7,0.5-1,1.3-0.9,2.7c0.1,0.3,0.3,1.2,0.6,1.9c3,6.6,6.1,13.1,9.1,19.7
		c0.2,0.3,0.3,0.6,0.5,1c0.2,0.3,0.4,0.6,0.6,0.9c0.9,1.1,2.2,1.5,3.5,1.1c0.8-0.3,1.6-0.6,2.3-0.9c7-3.2,14-6.5,21-9.7
		c0.7-0.4,1.5-0.7,2.2-1.1c0.5-0.3,1-0.6,1.5-1c1.2-1,1.6-2.4,1.1-3.8c-0.3-0.9-0.7-1.8-1.1-2.6c-2.5-5.5-5.1-11-7.7-16.4
		C219,722,218.8,721.3,218.4,720.7z"/>
	<path class="st1" d="M640.6,193.5c0.2-1.3-0.4-2.7-1.6-3.3c-0.7-0.4-1.5-0.7-2.3-1c-8.1-2.4-16.1-4.8-24.2-7.2
		c-0.7-0.2-1.4-0.3-2.1-0.4c-1.7-0.2-3,0.6-3.8,2c-0.5,0.9-0.9,2-1.2,3c-1.7,6.3-3.5,12.6-5.2,18.9c-0.2,0.7-0.3,1.4-0.4,2.1
		c-0.2,1.6,0.5,2.8,1.9,3.5c0.6,0.3,1.3,0.5,2,0.7c2.6,0.8,5.3,1.5,7.9,2.3c5.4,1.7,10.9,3.3,16.3,4.9c0.9,0.3,1.8,0.5,2.8,0.5
		c1.1,0,2-0.5,2.7-1.4c0.3-0.4,0.5-0.8,0.7-1.3c0.3-0.7,0.4-1.4,0.6-2c1.8-6.4,3.5-12.8,5.3-19.2
		C640.2,194.9,640.4,194.2,640.6,193.5z"/>
	<path class="st1" d="M521.6,578.2c-0.9-1.2-2.4-1.7-3.8-1.3c-0.7,0.2-1.3,0.5-2,0.8c-7.4,3.4-14.9,6.9-22.3,10.4
		c-0.7,0.3-1.5,0.7-2.2,1.1c-1.6,1-2.1,2.6-1.5,4.3c0.3,0.7,0.5,1.3,0.8,2c0.5,1.1,1,2.1,1.5,3.2c2.2,4.7,4.4,9.5,6.6,14.2
		c0.5,1,0.9,1.9,1.5,2.8c0.7,1.1,2.2,1.6,3.4,1.3c0.7-0.2,1.4-0.4,2-0.7c7.9-3.6,15.7-7.3,23.6-10.9c0.6-0.3,1.3-0.7,1.8-1.1
		c0.8-0.6,1.2-1.5,1.1-3c-0.1-0.4-0.3-1.2-0.6-1.9c-3-6.5-6-12.9-9-19.4C522.4,579.3,522.1,578.7,521.6,578.2z"/>
	<path class="st1" d="M502.2,543.1c1.4-0.9,1.9-2.5,1.4-4.1c-0.3-0.8-0.6-1.5-1-2.3c-1.3-2.8-2.6-5.6-3.9-8.4
		c-1.4-3.1-2.9-6.2-4.3-9.4c-0.4-0.8-0.9-1.7-1.4-2.4c-0.6-0.8-1.5-1.2-2.9-1.2c-0.3,0.1-1,0.2-1.7,0.4c-1,0.4-1.9,0.9-2.9,1.3
		c-6.3,2.9-12.7,5.9-19,8.8c-1,0.4-2,0.9-2.9,1.3c-0.5,0.3-1,0.6-1.5,1c-1,0.9-1.3,2-0.9,3.2c0.3,0.9,0.7,1.8,1.1,2.6
		c2.7,5.9,5.5,11.8,8.2,17.7c0.4,0.8,0.7,1.5,1.2,2.2c0.8,1.2,2,1.7,3.4,1.4c0.8-0.2,1.6-0.5,2.3-0.8c7.7-3.6,15.5-7.2,23.2-10.8
		C501.1,543.7,501.7,543.4,502.2,543.1z"/>
	<path class="st1" d="M469.7,573.1c-5.2-11.2-10.4-22.4-15.6-33.6c-28.2-60.8-56.4-121.5-84.7-182.3c-2.3-5-4.6-9.9-6.9-14.9
		c-0.3-0.5-0.6-1-1.3-1.4c-1.2,0.6-2.5,1.1-3.8,1.7c-81.4,37.8-162.9,75.6-244.3,113.5c-4.6,2.1-4.2,1.2-2.1,5.8
		c23.9,51.6,47.9,103.2,71.9,154.8c11.4,24.5,22.7,48.9,34.1,73.4c0.5,1.1,1,2.1,1.5,3.2c0.2,0.3,0.9,0.6,1.3,0.4
		c1-0.4,2-0.8,2.9-1.3c64.8-30.1,129.7-60.2,194.5-90.3c16.7-7.8,33.4-15.5,50.1-23.3c1-0.4,1.9-0.9,2.9-1.4c0.7-0.4,0.9-1,0.6-1.8
		C470.5,574.8,470.1,573.9,469.7,573.1z"/>
	<path class="st1" d="M344.8,297.7c-0.3-3.9-0.5-7.8-0.8-11.7c-0.1-0.8-0.2-1.6-0.5-2.4c-0.5-1.7-1.7-2.5-3.4-2.6
		c-1.2-0.1-2.4,0.1-3.5,0.2c-3.5,0.3-7.1,0.5-10.6,0.8c-4.3,0.3-8.5,0.6-12.8,0.9c-0.6,0.1-1.2,0.1-1.7,0.3c-1.7,0.4-2.9,1.9-3,3.6
		c-0.1,1.1,0,2.1,0.1,3.2c0.2,2.1,0.4,4.2,0.5,6.4c0.3,4.1,0.6,8.3,0.9,12.4c0.1,0.8,0.2,1.7,0.4,2.5c0.5,1.7,1.6,2.6,3.3,2.7
		c1.1,0.1,2.1,0,3.2,0v-0.1c1.3-0.1,2.6-0.2,3.9-0.3c5.3-0.4,10.6-0.9,16-1.4c2-0.2,4-0.4,6-0.6c1.7-0.2,2.8-1.4,2.9-3.1
		c0-0.8,0-1.6-0.1-2.5C345.3,303.1,345,300.4,344.8,297.7z"/>
	<path class="st1" d="M358.9,326.6c0.1,0.6,0.5,0.9,1,0.7c1-0.4,2-0.8,2.9-1.3c16.4-7.6,32.7-15.2,49.1-22.8
		c1.2-0.5,2.4-1.1,3.6-1.6c0.8-0.4,1.4-0.2,1.8,0.6c0.6,1.2,1.1,2.4,1.7,3.5c24.5,52.7,48.9,105.3,73.4,158
		c7.3,15.7,14.6,31.5,21.9,47.2l13,1.7l2.4,6.3c1.1-0.1,2.2-0.2,3.3-0.3c4.4-0.3,8.8-0.7,13.2-1.1c4.5-0.3,9-0.6,13.5-1
		c3.5-0.3,7.1-0.6,10.7-0.8c4.6-0.4,9.2-0.7,13.8-1.1c4.4-0.3,8.8-0.6,13.2-1c3.3-0.3,6.6-0.5,9.9-0.8c4.9-0.4,9.7-0.8,14.6-1.1
		c4.3-0.3,8.5-0.6,12.8-1c4.7-0.4,9.5-0.8,14.2-1.1c3.3-0.2,3.3-0.2,3-3.6c-0.4-4.3-0.7-8.5-1.1-12.8c-0.3-4.5-0.6-9-1-13.5
		c-0.3-3.6-0.5-7.1-0.8-10.7c-0.4-4.4-0.7-8.8-1.1-13.2c-0.3-4.5-0.6-9-1-13.5c-0.3-3.7-0.6-7.3-0.8-11c-0.4-4.6-0.8-9.2-1.1-13.8
		c-0.3-4.4-0.6-8.8-1-13.2c-0.3-3.3-0.5-6.6-0.8-9.9c-0.4-4.4-0.7-8.8-1.1-13.1c-0.3-4.5-0.6-9-1-13.5c-0.3-3.4-0.5-6.9-0.8-10.3
		c-0.4-4.4-0.7-8.8-1.1-13.2c-0.3-4.5-0.6-9-1-13.5c-0.3-3.5-0.5-7.1-0.8-10.7c-0.4-4.6-0.7-9.2-1.1-13.8c-0.3-4.4-0.6-8.8-1-13.2
		c-0.3-3.3-0.5-6.6-0.8-9.9c-0.4-4.6-0.8-9.2-1.1-13.8c-0.3-4.4-0.6-8.8-1-13.2c-0.1-1.8-0.3-3.5-0.5-5.3c-0.1-0.6-0.6-1.1-1.2-1
		c-2.2,0.1-4.5,0.2-6.8,0.4c-4.6,0.3-9.2,0.7-13.8,1.1c-4.4,0.3-8.8,0.6-13.2,1c-3.3,0.2-6.6,0.5-9.9,0.8c-4.6,0.4-9.2,0.7-13.9,1.1
		c-4.4,0.3-8.8,0.6-13.2,1c-3.2,0.2-6.4,0.5-9.6,0.7c-4.4,0.4-8.8,0.7-13.1,1.1c-4.5,0.3-9,0.6-13.5,1c-3.5,0.3-7.1,0.5-10.7,0.8
		c-4.7,0.4-9.5,0.8-14.2,1.1c-4.4,0.3-8.8,0.6-13.2,1c-3.3,0.3-6.6,0.5-9.9,0.8c-4.6,0.4-9.2,0.8-13.9,1.1c-4.4,0.3-8.8,0.6-13.2,1
		c-3.2,0.2-6.4,0.5-9.6,0.7c-4.4,0.4-8.8,0.7-13.1,1.1c-4.5,0.4-9,0.6-13.5,1c-3.7,0.3-7.3,0.6-11,0.9c-4.6,0.4-9.2,0.7-13.9,1.1
		c-4.4,0.3-8.8,0.6-13.2,1c-5.4,0.4-10.9,0.8-16.3,1.3c-1,0.1-1.9,0.2-2.8,0.3c-0.3,0-0.8,0.7-0.8,1c0.1,1.9,0.2,3.8,0.3,5.7
		c0.4,4.9,0.8,9.7,1.1,14.6c0.3,4.3,0.6,8.5,1,12.8c0.1,1.7,0.3,3.5,0.4,5.2c0.3,3.7,0.6,7.4,0.9,11.1
		C358.5,323.3,358.7,324.9,358.9,326.6z"/>
	<polygon class="st1" points="596.8,191.5 596.9,191.6 596.8,191.5 	"/>
	<path class="st1" d="M112.4,499.8c0.4-0.2,0.8-0.5,1.1-0.9c0.7-0.8,1-1.7,0.6-2.6c-0.2-0.7-0.5-1.4-0.8-2
		c-2.9-6.2-5.8-12.5-8.8-18.7c-0.4-0.7-0.8-1.5-1.3-2.1c-1-1.3-2.6-1.8-4.1-1.3c-1,0.4-2,0.8-2.9,1.3c-3.2,1.5-6.4,3.1-9.7,4.4
		c-4.1,1.7-8,3.6-12,5.4c-0.7,0.3-1.4,0.8-2,1.4c-0.8,0.6-1.1,1.5-1.1,2.9c0,0.7,0.3,1.7,0.8,2.7c3,6.3,5.9,12.7,8.9,19
		c0.3,0.6,0.7,1.2,1.1,1.8c0.9,1.2,2.4,1.6,3.9,1.1c1.1-0.4,2.2-0.9,3.3-1.4c6.9-3.2,13.7-6.5,20.6-9.8
		C110.7,500.7,111.6,500.3,112.4,499.8z"/>
	<path class="st1" d="M434,466.5c-1.3,0.8-1.8,2.3-1.3,3.7c0.2,0.6,0.4,1.1,0.7,1.7c0.6,1.3,1.2,2.6,1.8,3.9
		c2.2,4.9,4.5,9.7,6.7,14.5c0.4,1,1,1.9,1.6,2.8c0.5,0.7,1.3,1,2.4,1c0.7,0.1,1.6-0.4,2.5-0.8c3.2-1.5,6.4-3,9.7-4.5
		c4.3-2,8.6-4,12.9-6c0.7-0.3,1.5-0.7,2.2-1.1c1.8-1,2.4-2.6,1.7-4.5c-0.2-0.6-0.4-1.1-0.7-1.6c-2.8-6-5.6-12.1-8.4-18.1
		c-0.3-0.6-0.6-1.3-1-1.9c-0.9-1.4-2.3-2-4-1.5c-0.7,0.2-1.3,0.5-2,0.8c-7.6,3.5-15.1,7-22.6,10.5C435.4,465.7,434.7,466,434,466.5z
		"/>
	<path class="st1" d="M376.2,348.8c2.8,6.3,5.7,12.5,8.5,18.8c0.3,0.6,0.6,1.3,1,1.9c1,1.6,2.6,2.2,4.3,1.6c0.8-0.3,1.5-0.6,2.3-1
		c4.2-2,8.3-4,12.5-6c3.2-1.5,6.4-3,9.7-4.5c0.8-0.4,1.7-0.9,2.4-1.4c1.1-0.8,1.5-2.2,1.1-3.5c-0.3-0.8-0.6-1.5-1-2.3
		c-2.5-5.6-5-11.3-7.5-16.9c-0.3-0.8-0.7-1.5-1.1-2.2c-0.4-0.6-0.8-1.2-1.3-1.7c-0.7-0.7-1.6-1-2.6-1c-1.1-0.1-2.1,0.4-3,0.8
		c-7.6,3.6-15.2,7.2-22.8,10.8c-0.6,0.3-1.3,0.7-1.8,1.1c-1.2,0.8-1.6,2.1-1.3,3.4C375.6,347.5,375.9,348.2,376.2,348.8z"/>
	<path class="st1" d="M406.6,403.9c-0.5,0.3-1,0.6-1.4,1c-1.1,1-1.4,2.2-1.1,3.6c0.1,0.6,0.4,1.1,0.6,1.7c3,6.4,6,12.9,9,19.4
		c0.3,0.5,0.5,1.1,0.9,1.5c0.3,0.4,0.6,0.7,1,1c0.5,0.3,1.1,0.4,1.5,0.6c0.5-0.1,0.9-0.1,1.2-0.2c0.7-0.2,1.3-0.5,2-0.8
		c7.7-3.5,15.3-7.1,22.9-10.6c0.6-0.3,1.3-0.7,1.9-1.1c1.4-1,1.9-2.5,1.3-4.1c-0.4-1.1-0.8-2.2-1.4-3.3c-2.4-5.3-4.9-10.5-7.4-15.8
		c-0.3-0.6-0.6-1.3-0.9-1.9c-0.2-0.4-0.5-0.8-0.8-1.2c-1.1-1.3-2.6-1.8-4.1-1.3c-0.9,0.3-1.8,0.7-2.6,1.1
		c-6.9,3.2-13.8,6.3-20.7,9.5C407.8,403.3,407.2,403.6,406.6,403.9z"/>
	<polygon class="st1" points="596.8,191.7 596.8,191.8 596.8,191.7 596.8,191.8 	"/>
	<path class="st1" d="M903.8,478.4c-0.8-0.3-1.6-0.5-2.4-0.7c-3-0.8-5.9-1.7-8.9-2.5c-4.8-1.4-9.6-2.7-14.3-4.2
		c-1-0.3-2.1-0.6-3.6-0.5c-0.7,0-1.6,0.5-2.1,1.5c-0.4,0.7-0.7,1.5-0.9,2.3c-2,6.7-3.9,13.4-5.9,20.1c-0.1,0.5-0.3,0.9-0.3,1.4
		c-0.2,1.7,0.5,3.1,2,3.8c0.7,0.3,1.5,0.6,2.3,0.8c1.9,0.6,3.9,1.1,5.8,1.7c5.9,1.7,11.8,3.4,17.8,5.2c1,0.3,2.1,0.6,3.1,0.5
		c1.2-0.1,2.1-0.6,2.6-1.6c0.4-0.7,0.6-1.5,0.9-2.3c1.9-6.6,3.8-13.2,5.7-19.8c0.2-0.6,0.3-1.2,0.4-1.7
		C906.3,480.3,905.6,479,903.8,478.4z"/>
	<path class="st1" d="M923.1,413.5c-0.7-0.3-1.3-0.5-2-0.7c-8-2.3-15.9-4.6-23.9-6.9c-0.9-0.3-1.8-0.5-2.8-0.6
		c-1.3-0.2-2.7,0.6-3.2,1.7c-0.4,0.7-0.6,1.5-0.8,2.3c-1.9,6.5-3.8,13-5.7,19.5c-0.2,0.7-0.4,1.4-0.5,2.1c-0.3,1.3,0.4,2.7,1.6,3.3
		c0.7,0.4,1.5,0.6,2.3,0.9c8.3,2.4,16.6,4.8,24.9,7.2c0.6,0.2,1.1,0.3,1.3,0.4c1.7,0.2,3.1-0.5,3.6-1.7c0.4-0.8,0.7-1.8,1-2.7
		l5.3-18.4c0.3-0.9,0.5-1.8,0.7-2.8C925.2,415.5,924.5,414.1,923.1,413.5z"/>
	<path class="st1" d="M885.2,543.5c-0.9-0.4-1.8-0.6-2.7-0.9c-4.3-1.2-8.7-2.4-13-3.7c-3.4-1-6.8-2-10.2-3c-0.9-0.3-1.8-0.5-2.7-0.5
		c-1.2,0.1-2.4,0.7-2.9,1.8c-0.4,0.7-0.7,1.5-0.9,2.3c-1.9,6.5-3.8,13-5.6,19.5c-0.2,0.7-0.3,1.4-0.4,2.1c-0.1,1.6,0.5,2.8,1.8,3.5
		c0.4,0.2,0.8,0.4,1.3,0.6c0.8,0.3,1.6,0.5,2.4,0.7c7.4,2.2,14.8,4.3,22.2,6.4c0.7,0.2,1.4,0.4,2.1,0.5c1.8,0.4,3.3-0.4,4-2.1
		c0.4-0.9,0.6-1.8,0.9-2.7c1.7-6,3.5-12.1,5.2-18.1c0.2-0.8,0.5-1.6,0.6-2.4C887.6,545.8,886.8,544.2,885.2,543.5z"/>
	<path class="st1" d="M866.5,608.8c-1.1-0.5-2.2-0.8-3.4-1.2c-7.3-2.1-14.6-4.2-21.9-6.3c-0.9-0.3-1.8-0.5-2.8-0.7
		c-1.6-0.3-3.1,0.5-3.8,2c-0.4,0.7-0.6,1.5-0.8,2.3c-1.9,6.2-3.7,12.5-5.5,18.8c-0.2,0.7-0.4,1.4-0.6,2.1c-0.4,1.8,0.4,3.4,2,4.1
		c0.4,0.2,0.9,0.4,1.3,0.5c1.1,0.3,2.3,0.6,3.4,1c7.1,2.1,14.1,4.2,21.1,6.3c0.9,0.3,1.8,0.5,2.8,0.6c1.5,0.2,2.7-0.6,3.4-2.1
		c0.3-0.7,0.5-1.3,0.7-2c1.8-6.5,3.7-13,5.5-19.5c0.3-0.9,0.4-1.9,0.5-2.3C868.4,610.4,867.8,609.3,866.5,608.8z"/>
	<path class="st1" d="M665.3,354.7c5-0.4,9.9-0.8,14.9-1.2c0.6-0.1,1.2-0.1,1.8-0.2c1.7-0.4,2.9-1.7,3-3.5c0-0.8,0-1.6,0-2.5
		c-0.2-2.6-0.5-5.2-0.7-7.8c-0.3-3.9-0.6-7.8-0.8-11.7c-0.1-1-0.2-1.9-0.6-2.8c-0.6-1.3-1.6-2.1-3-2.2c-0.9-0.1-1.9-0.1-2.8,0
		c-3.3,0.2-6.6,0.5-9.9,0.7c-4.4,0.3-8.8,0.6-13.1,1c-1.1,0.1-2.1,0.3-3.1,0.5c-1.8,0.5-2.9,1.8-2.9,3.6c0,1.4,0.1,2.9,0.2,4.3
		c0.1,1.5,0.3,3.1,0.4,4.6c0.3,4.3,0.6,8.5,0.9,12.8c0.1,1.1,0.3,2.1,0.6,3.1c0.3,1.3,1.3,2,2.6,2.2c0.7,0.1,1.4,0.1,2.1,0
		C658.2,355.3,661.8,355,665.3,354.7z"/>
	<path class="st1" d="M959.9,282.4c-0.9-0.4-1.8-0.6-2.7-0.9c-4-1-7.9-2.3-12-3.3c-3.3-0.8-6.6-1.9-9.9-2.8c-1-0.3-2.1-0.5-2.7-0.6
		c-1.8,0.1-3,0.5-3.6,1.8c-0.4,0.7-0.7,1.5-0.9,2.3c-0.6,1.9-1.1,3.9-1.7,5.8c-1.4,4.7-2.8,9.3-4.1,14c-0.2,0.8-0.4,1.6-0.5,2.4
		c-0.1,1.2,0.5,2.1,1.5,2.6c0.7,0.4,1.5,0.7,2.3,0.9c8.1,2.4,16.1,4.8,24.2,7.2c0.8,0.2,1.6,0.4,2.4,0.5c1.6,0.1,2.9-0.4,3.7-2.2
		c0.4-0.7,0.6-1.5,0.8-2.3c1.8-6.1,3.6-12.3,5.4-18.4c0.2-0.8,0.4-1.6,0.5-2.4C962.8,284.8,961.9,283.3,959.9,282.4z"/>
	<path class="st1" d="M942.5,348.6c-0.5-0.3-1-0.6-1.6-0.8c-1.2-0.4-2.5-0.7-3.8-1.1c-7.1-2-14.1-4.1-21.2-6.1c-1-0.3-2-0.7-3-0.6
		c-1.3,0.1-2.2,0.6-2.7,1.5c-0.4,0.6-0.7,1.3-0.9,1.9c-2,6.8-4,13.7-6,20.5c-0.2,0.7-0.3,1.4-0.3,2.1c-0.1,1.5,0.6,2.5,1.9,3.1
		c0.6,0.3,1.3,0.5,2,0.7c8,2.3,15.9,4.6,23.9,6.9c0.8,0.2,1.6,0.4,2.4,0.6c1.5,0.3,2.8-0.5,3.5-1.9c0.2-0.5,0.4-1.1,0.6-1.7
		c2-7,4-13.9,6-20.8c0.2-0.7,0.3-1.4,0.3-2.1C943.8,350,943.3,349.1,942.5,348.6z"/>
	<polygon class="st1" points="685.9,267.6 685.9,267.7 685.9,267.6 685.9,267.6 	"/>
	<path class="st1" d="M848.5,511.5c0.2-0.5,0.4-1.1,0.5-1.7c8.8-30.2,17.5-60.5,26.2-90.7c12.5-43.2,25-86.5,37.5-129.7
		c2.4-8.2,4.7-16.4,7.1-24.6c0.1-0.4,0.3-0.9,0.4-1.4c0.1-0.4-0.2-1-0.6-1.2c-0.7-0.2-1.3-0.5-2-0.7c-9.5-2.7-18.9-5.5-28.4-8.2
		c-35.8-10.3-71.7-20.7-107.5-31c-33.3-9.6-66.6-19.3-100-28.9c-8.9-2.6-17.8-5.1-26.7-7.7c-0.4-0.1-0.9-0.2-1.4-0.3
		c-0.2,0-0.5,0.1-0.6,0.3c-0.3,0.8-0.7,1.5-0.9,2.3c-4.4,15.3-8.8,30.6-13.2,45.9c-0.2,0.6-0.5,1.1-0.3,1.7c0.1,0.2,0.3,0.4,0.4,0.5
		c0.2,0.1,0.5,0.1,0.7,0.1c5.8-0.4,11.6-0.8,17.4-1.3c5.7-0.4,11.4-0.9,17.1-1.3c4.4-0.4,8.8-0.7,13.1-1.1c3-0.2,5.9-0.4,8.9-0.6
		c0.1,0,0.3,0,0.3,0.1c0.3,0.2,0.7,0.4,0.8,0.6c0.2,0.4,0.2,0.9,0.2,1.4c0.3,4.2,0.6,8.3,0.9,12.5c0.3,3.5,0.5,7.1,0.8,10.7
		c0.4,4.5,0.7,9,1.1,13.5c0.3,4.5,0.6,9,1,13.5c0.2,3.3,0.5,6.6,0.8,9.9c0.4,4.4,0.7,8.8,1.1,13.1c0.3,4.5,0.6,9,1,13.5
		c0.3,3.7,0.6,7.3,0.9,11c0.4,4.6,0.7,9.2,1.1,13.8c0.3,4.4,0.6,8.8,1,13.2c0.2,3.3,0.5,6.6,0.8,10c0.4,4.6,0.7,9.2,1.1,13.8
		c0.3,4.4,0.6,8.8,1,13.2c0.2,3.2,0.5,6.4,0.7,9.6c0.4,4.5,0.8,9,1.1,13.5c0.3,4.5,0.6,9,1,13.5c0.3,3.4,0.5,6.9,0.8,10.3
		c0.4,4.6,0.8,9.2,1.1,13.8c0.3,4.4,0.6,8.8,1,13.2c0.1,1.2,0.2,2.4,0.4,3.5c0.1,0.8,0.4,1.3,1.2,1.5c4.8,1.4,9.6,2.8,14.4,4.2
		c37.5,10.8,75.1,21.7,112.6,32.5c1.1,0.3,2.3,0.6,3.4,0.9C848.1,512.1,848.4,511.8,848.5,511.5z"/>
	<path class="st1" d="M670.7,422.1c4.6-0.4,9.2-0.6,13.8-1c0.7-0.1,1.4-0.1,2.1-0.2c0.6-0.1,1.2-0.3,1.7-0.5c0.8-0.4,1.4-1,1.5-1.9
		c0.1-0.7,0.2-1.4,0.2-2.1c0-1-0.1-1.9-0.2-2.8c0,0,0,0,0.1,0c-0.2-3-0.5-5.9-0.7-8.9c-0.3-3.3-0.5-6.6-0.8-9.9
		c-0.1-0.6-0.2-1.2-0.3-1.7c-0.4-1.4-1.7-2.4-3.2-2.4c-1.3,0-2.6,0.1-3.9,0.2c-1.6,0.1-3.3,0.3-5,0.5c-4.6,0.3-9.2,0.7-13.8,1
		c-1.8,0.1-3.6,0.3-5.3,0.4c-0.5,0-1,0.1-1.4,0.2c-1.2,0.3-2.1,1.1-2.4,2.4c-0.2,0.8-0.2,1.6-0.1,2.5c0.4,5.8,0.9,11.6,1.3,17.4
		c0.1,1.4,0.3,2.8,0.4,4.3c0,0.4,0.1,0.7,0.2,1.1c0.3,1.4,1.2,2.3,2.6,2.5c0.8,0.1,1.6,0.1,2.5,0
		C663.6,422.7,667.2,422.4,670.7,422.1z"/>
	<polygon class="st1" points="686,267.6 686,267.8 686,267.9 686,267.6 	"/>
	<path class="st1" d="M665.3,490.7c0.9-0.1,1.9-0.2,2.8-0.2c0,0,0,0,0,0c1.4-0.1,2.9-0.2,4.3-0.3c5.7-0.4,11.4-0.9,17.1-1.3
		c0.9-0.1,1.9-0.2,2.8-0.4c1.7-0.4,2.9-1.2,3.1-3.8c0-0.6-0.1-1.2-0.1-1.8c-0.1-1.9-0.3-3.8-0.4-5.7c-0.3-4.1-0.6-8.3-0.9-12.4
		c-0.1-1.1-0.2-2.1-0.4-3.2c0-0.4-0.1-0.7-0.2-1c-0.3-1.3-1.5-2.3-2.8-2.4c-0.8-0.1-1.7-0.1-2.5,0c-3.1,0.2-6.2,0.5-9.2,0.7
		c-4.7,0.3-9.5,0.6-14.2,1c-0.8,0.1-1.6,0.1-2.5,0.3c-0.6,0.1-1.2,0.2-1.7,0.4c-1.1,0.4-1.8,1.1-2,2.3c-0.1,0.9-0.1,1.9-0.1,2.8
		c0.3,4.4,0.6,8.8,1,13.1c0.2,2.7,0.4,5.4,0.7,8.2c0.2,2.6,1.6,3.8,4.3,3.7C664.6,490.8,665,490.7,665.3,490.7z"/>
	<path class="st1" d="M704.2,597.7c-0.1-0.5-0.1-1-0.2-1.4c-0.4-1.7-1.8-2.9-3.6-3c-0.9,0-1.9,0.1-2.8,0.2c-1.3,0.1-2.6,0.3-3.9,0.4
		c-6.9,0.5-13.7,1-20.6,1.5c-0.5,0-0.9,0.1-1.4,0.2c-1.9,0.5-3.1,1.9-3.2,3.8c-0.1,1.4,0,2.8,0.1,4.3c0.5,5.4,1,10.9,1.5,16.3
		c0.1,1.2,0.3,2.4,0.5,3.5c0.3,1.5,1.4,2.5,3,2.6c1.1,0.1,2.1,0,2.7,0c3.5-0.3,6.4-0.5,9.4-0.7c4.7-0.3,9.5-0.6,14.2-0.9
		c1.2-0.1,2.4-0.3,3.5-0.6c1.2-0.3,2-1.2,2.4-2.4c0.3-0.9,0.3-1.8,0.2-2.8C705.4,611.6,704.8,604.6,704.2,597.7z"/>
	<path class="st1" d="M671,558.4c8.5-0.6,16.2-1.2,23.9-1.8c1.1-0.1,2.1-0.2,3.2-0.5c1.3-0.3,2.3-1.4,2.5-2.7c0.1-0.8,0.1-1.7,0-2.5
		c-0.2-2.4-0.4-4.7-0.6-7.1c-0.3-4.3-0.6-8.5-0.9-12.8c-0.1-1.1-0.2-2.1-0.6-3.1c-0.4-0.9-1-1.5-2-1.9c-1-0.4-2.1-0.3-3.2-0.2
		c-4.5,0.4-9,0.7-13.5,1.1c-3.9,0.3-7.8,0.6-11.7,0.8c-1,0.1-1.9,0.3-2.7,0.7c-1,0.5-1.7,1.3-1.8,2.5c-0.1,1-0.1,1.9,0,2.9
		c0.2,2.2,0.4,4.5,0.6,6.7c0.3,4.4,0.6,8.8,0.9,13.1c0.1,0.7,0.1,1.4,0.3,2.1c0.4,1.7,1.5,2.6,3.3,2.7
		C669.7,558.4,670.8,558.4,671,558.4z"/>
	<path d="M989,268.7c-0.7-0.2-1.4-0.4-2.1-0.6c-19.9-5.7-39.7-11.5-59.6-17.2c-30.1-8.7-60.2-17.4-90.4-26.1
		c-34.1-9.8-68.2-19.7-102.3-29.6c-28.3-8.2-56.6-16.3-84.9-24.5c-18.4-5.3-36.7-10.6-55.1-16c-0.3-0.1-0.7-0.2-1-0.3
		c-0.4-0.1-1.1,0.2-1.2,0.6c-0.3,0.9-0.6,1.8-0.9,2.7c-3.6,12.5-7.2,25.1-10.9,37.6c-4.2,14.6-8.5,29.2-12.7,43.8
		c-0.2,0.6-0.3,1.2-0.5,1.7c-0.2,0.4-0.5,0.8-1,0.9c-0.7,0.1-1.4,0.2-2.1,0.3c-3.5,0.3-7.1,0.6-10.7,0.8c-4.5,0.3-9,0.6-13.5,1
		c-3.4,0.3-6.9,0.5-10.3,0.8c-4.5,0.4-9,0.7-13.5,1.1c-4.5,0.3-9,0.6-13.5,1c-3.4,0.3-6.9,0.5-10.3,0.8c-4.6,0.4-9.2,0.8-13.8,1.1
		c-4.4,0.3-8.8,0.6-13.2,1c-3.3,0.3-6.6,0.5-9.9,0.8c-4.6,0.4-9.2,0.7-13.9,1.1c-4.4,0.3-8.8,0.6-13.2,1c-3.2,0.2-6.4,0.5-9.6,0.7
		c-4.5,0.4-9,0.8-13.5,1.1c-4.5,0.4-9,0.6-13.5,1c-3.4,0.2-6.9,0.5-10.3,0.8c-4.5,0.4-9,0.7-13.5,1.1c-4.5,0.4-9,0.6-13.5,1
		c-3.4,0.3-6.9,0.5-10.3,0.8c-4.6,0.4-9.2,0.7-13.9,1.1c-4.4,0.3-8.8,0.6-13.2,1c-3.2,0.2-6.4,0.5-9.6,0.7
		c-5.2,0.4-10.4,0.7-15.6,1.2c-9.2,0.9-7.5-1-7,8.2c0.2,4.4,0.7,8.8,1,13.1c0.4,4.5,0.6,9,1,13.5c0.3,3.6,0.5,7.1,0.8,10.7
		c0.4,4.6,0.7,9.2,1.1,13.9c0.2,2.2,0.3,4.3,0.5,6.5l68-18.4c-0.1-1.7-0.3-3.5-0.4-5.2c-0.3-4.3-0.6-8.5-1-12.8
		c-0.4-4.9-0.8-9.7-1.1-14.6c-0.1-1.9-0.2-3.8-0.3-5.7c0-0.4,0.5-1,0.8-1c1-0.1,1.9-0.3,2.8-0.3c5.4-0.4,10.9-0.9,16.3-1.3
		c4.4-0.3,8.8-0.6,13.2-1c4.6-0.4,9.2-0.7,13.9-1.1c3.7-0.3,7.3-0.6,11-0.9c4.5-0.3,9-0.6,13.5-1c4.4-0.3,8.8-0.7,13.1-1.1
		c3.2-0.3,6.4-0.5,9.6-0.7c4.4-0.3,8.8-0.6,13.2-1c4.6-0.3,9.2-0.7,13.9-1.1c3.3-0.3,6.6-0.5,9.9-0.8c4.4-0.3,8.8-0.6,13.2-1
		c4.7-0.4,9.5-0.8,14.2-1.1c3.5-0.3,7.1-0.6,10.7-0.8c4.5-0.3,9-0.6,13.5-1c4.4-0.3,8.8-0.7,13.1-1.1c3.2-0.3,6.4-0.5,9.6-0.7
		c4.4-0.3,8.8-0.6,13.2-1c4.6-0.4,9.2-0.7,13.9-1.1c3.3-0.3,6.6-0.5,9.9-0.8c4.4-0.3,8.8-0.6,13.2-1c4.6-0.3,9.2-0.7,13.8-1.1
		c2.3-0.2,4.5-0.3,6.8-0.4c0.6,0,1.2,0.4,1.2,1c0.2,1.8,0.4,3.5,0.5,5.3c0.3,4.4,0.6,8.8,1,13.2c0.4,4.6,0.7,9.2,1.1,13.8
		c0.3,3.3,0.5,6.6,0.8,9.9c0.3,4.4,0.6,8.8,1,13.2c0.4,4.6,0.7,9.2,1.1,13.8c0.3,3.6,0.6,7.1,0.8,10.7c0.3,4.5,0.6,9,1,13.5
		c0.3,4.4,0.7,8.8,1.1,13.2c0.3,3.4,0.5,6.9,0.8,10.3c0.3,4.5,0.6,9,1,13.5c0.3,4.4,0.7,8.8,1.1,13.1c0.3,3.3,0.5,6.6,0.8,9.9
		c0.3,4.4,0.6,8.8,1,13.2c0.3,4.6,0.7,9.2,1.1,13.8c0.3,3.7,0.6,7.3,0.8,11c0.3,4.5,0.6,9,1,13.5c0.3,4.4,0.7,8.8,1.1,13.2
		c0.3,3.5,0.6,7.1,0.8,10.7c0.3,4.5,0.6,9,1,13.5c0.3,4.3,0.7,8.5,1.1,12.8c0.3,3.4,0.3,3.4-3,3.6c-4.7,0.3-9.5,0.8-14.2,1.1
		c-4.3,0.3-8.5,0.6-12.8,1c-4.9,0.4-9.7,0.8-14.6,1.1c-3.3,0.3-6.6,0.5-9.9,0.8c-4.4,0.3-8.8,0.6-13.2,1c-4.6,0.3-9.2,0.7-13.8,1.1
		c-3.6,0.3-7.1,0.6-10.7,0.8c-4.5,0.3-9,0.6-13.5,1c-4.4,0.3-8.8,0.7-13.2,1.1c-1.1,0.1-2.2,0.2-3.3,0.3l2.3,6.2
		c4.2-0.3,8.4-0.7,12.6-1c4.4-0.3,8.8-0.6,13.2-1c4.7-0.4,9.5-0.8,14.2-1.1c3.4-0.3,6.9-0.5,10.3-0.8c4.5-0.3,9-0.6,13.5-1
		c4.5-0.3,9-0.7,13.5-1.1c3.2-0.3,6.4-0.5,9.6-0.7c4.4-0.3,8.8-0.6,13.2-1c4.6-0.4,9.2-0.7,13.8-1.1c1.9-0.2,3.8-0.2,5.7-0.3
		c0.4,0,0.9,0.4,1,0.9c0,0.2,0.1,0.5,0.1,0.7c0.3,3.9,0.6,7.8,0.9,11.7c0.3,4.5,0.7,9,1.1,13.5c0.3,3.3,0.5,6.6,0.8,9.9
		c0.3,4.4,0.6,8.8,1,13.2c0.4,4.6,0.7,9.2,1.1,13.8c0.3,3.3,0.5,6.6,0.8,9.9c0.3,4.4,0.6,8.8,1,13.2c0.4,4.6,0.7,9.2,1.1,13.8
		c0.3,3.5,0.6,7.1,0.8,10.7c0.3,4.5,0.6,9,1,13.5c0.3,4.4,0.7,8.8,1.1,13.1c0.2,2.3,0.4,4.6,0.5,6.9h66.7c-0.2-2-0.3-4-0.5-5.9
		c-0.3-4.4-0.6-8.8-1-13.2c-0.4-4.6-0.7-9.2-1.1-13.8c-0.3-3.3-0.5-6.6-0.8-10c-0.3-4.4-0.6-8.8-1-13.1c-0.3-4.6-0.7-9.3-1.1-13.9
		c-0.3-3.5-0.6-7.1-0.8-10.7c-0.3-4.5-0.6-9-1-13.5c-0.3-4.4-0.7-8.8-1.1-13.1c-0.3-3.4-0.6-6.9-0.8-10.3c-0.3-4.5-0.6-9-1-13.5
		c-0.3-4.5-0.7-9-1.1-13.5c-0.3-3.2-0.5-6.4-0.7-9.6c-0.3-4.4-0.6-8.8-1-13.2c-0.3-3.4-0.5-6.9-0.8-10.3c0-0.6-0.1-1.2,0.4-1.7
		c0.9-0.2,1.8,0.2,2.7,0.4c9,2.6,18,5.2,27,7.8c31.7,9.2,63.4,18.3,95.1,27.5c4.8,1.4,4.4,0.7,3.1,5.4c-11,38.1-22,76.2-33,114.3
		c-2.3,7.9-4.6,15.9-6.9,23.8h72c3.1-10.7,6.2-21.5,9.3-32.2c11.1-38.3,22.1-76.7,33.2-115c10.5-36.5,21.1-73,31.7-109.5
		c11.5-39.9,23-79.9,34.6-119.8c1.3-4.6,2.6-9.1,3.9-13.7C990.5,269.6,990.2,269.1,989,268.7z M342.7,311.4c-2,0.3-4,0.4-6,0.6
		c-5.3,0.5-10.6,0.9-16,1.4c-1.3,0.1-2.6,0.2-3.9,0.3v0.1c-1.1,0-2.1,0.1-3.2,0c-1.7-0.1-2.9-1-3.3-2.7c-0.2-0.8-0.4-1.6-0.4-2.5
		c-0.3-4.1-0.6-8.3-0.9-12.4c-0.2-2.1-0.4-4.3-0.5-6.4c-0.1-1.1-0.1-2.1-0.1-3.2c0.1-1.7,1.3-3.2,3-3.6c0.6-0.2,1.2-0.2,1.7-0.3
		c4.3-0.3,8.5-0.6,12.8-0.9c3.5-0.3,7.1-0.5,10.6-0.8c1.2-0.1,2.4-0.2,3.5-0.2c1.7,0.1,2.9,1,3.4,2.6c0.2,0.8,0.4,1.6,0.5,2.4
		c0.3,3.9,0.5,7.8,0.8,11.7c0.2,2.7,0.5,5.4,0.7,8.1c0.1,0.8,0.1,1.7,0.1,2.5C345.5,310,344.4,311.2,342.7,311.4z M596.8,191.8
		l0-0.1L596.8,191.8L596.8,191.8L596.8,191.8z M596.8,191.5L596.8,191.5l0.1,0L596.8,191.5z M634.8,214.8c-0.2,0.7-0.4,1.4-0.6,2
		c-0.2,0.4-0.4,0.9-0.7,1.3c-0.6,0.9-1.5,1.4-2.7,1.4c-1,0-1.9-0.2-2.8-0.5c-5.5-1.6-10.9-3.2-16.3-4.9c-2.6-0.8-5.2-1.5-7.9-2.3
		c-0.7-0.2-1.4-0.4-2-0.7c-1.4-0.7-2.1-1.9-1.9-3.5c0.1-0.7,0.2-1.4,0.4-2.1c1.7-6.3,3.4-12.6,5.2-18.9c0.3-1,0.6-2.1,1.2-3
		c0.8-1.5,2.1-2.2,3.8-2c0.7,0.1,1.4,0.2,2.1,0.4c8.1,2.4,16.1,4.8,24.2,7.2c0.8,0.2,1.6,0.6,2.3,1c1.2,0.6,1.8,2.1,1.6,3.3
		c-0.1,0.7-0.3,1.4-0.5,2.1C638.3,202,636.5,208.4,634.8,214.8z M644.4,285.6c-0.1-0.5-0.2-0.9-0.2-1.4c-0.1-1.6-0.3-3.3-0.4-5
		c-0.3-4.9-0.6-9.7-0.9-14.6c0,0-0.1,0-0.1,0c0-1.4-0.1-2.9,0-4.3c0.1-1.4,1-2.4,2.3-2.9c0.5-0.1,0.9-0.2,1.4-0.3
		c2.8-0.3,5.7-0.5,8.5-0.7c4.4-0.4,8.7-0.8,13.1-1.1c2-0.2,4-0.3,6-0.3c2,0,3.3,1.1,3.9,3c0.2,0.8,0.4,1.6,0.4,2.4
		c0.3,4.5,0.6,9,0.8,13.5c0.1,1.8,0.3,3.5,0.4,5.3c0.1,1,0.2,1.9,0.1,2.8c-0.1,2-1.3,3.4-3.2,3.6c-2,0.3-4,0.4-6,0.6
		c-4.5,0.4-9,0.8-13.5,1.2c-2.6,0.2-5.2,0.4-7.8,0.6c-0.7,0.1-1.4,0-2.1-0.1C645.8,287.9,644.7,286.9,644.4,285.6z M652.5,355.5
		c-1.3-0.2-2.2-0.9-2.6-2.2c-0.3-1-0.5-2.1-0.6-3.1c-0.3-4.3-0.6-8.5-0.9-12.8c-0.1-1.5-0.3-3.1-0.4-4.6c-0.1-1.4-0.2-2.9-0.2-4.3
		c0-1.8,1.1-3.1,2.9-3.6c1-0.3,2.1-0.5,3.1-0.5c4.4-0.4,8.8-0.6,13.1-1c3.3-0.2,6.6-0.5,9.9-0.7c0.9-0.1,1.9-0.1,2.8,0
		c1.4,0.1,2.4,0.9,3,2.2c0.4,0.9,0.6,1.8,0.6,2.8c0.3,3.9,0.5,7.8,0.8,11.7c0.2,2.6,0.5,5.2,0.7,7.8c0,0.9,0,1.7,0,2.5
		c-0.1,1.8-1.2,3.2-3,3.5c-0.6,0.1-1.2,0.2-1.8,0.2c-5,0.4-9.9,0.8-14.9,1.2c-3.5,0.3-7.1,0.6-10.6,0.8
		C654,355.6,653.2,355.6,652.5,355.5z M657.6,423c-1.4-0.2-2.4-1.2-2.6-2.5c-0.1-0.4-0.1-0.7-0.2-1.1c-0.1-1.4-0.3-2.8-0.4-4.3
		c-0.4-5.8-0.9-11.6-1.3-17.4c-0.1-0.8,0-1.7,0.1-2.5c0.2-1.3,1.1-2.1,2.4-2.4c0.5-0.1,0.9-0.2,1.4-0.2c1.8-0.2,3.5-0.3,5.3-0.4
		c4.6-0.3,9.2-0.6,13.8-1c1.7-0.1,3.3-0.3,5-0.5c1.3-0.1,2.6-0.2,3.9-0.2c1.5,0,2.7,1,3.2,2.4c0.2,0.6,0.3,1.2,0.3,1.7
		c0.3,3.3,0.5,6.6,0.8,9.9c0.2,3,0.5,5.9,0.7,8.9c0,0,0,0-0.1,0c0.1,0.9,0.2,1.9,0.2,2.8c0,0.7-0.1,1.4-0.2,2.1
		c-0.2,0.9-0.7,1.5-1.5,1.9c-0.5,0.2-1.1,0.4-1.7,0.5c-0.7,0.1-1.4,0.2-2.1,0.2c-4.6,0.3-9.2,0.6-13.8,1c-3.5,0.3-7.1,0.6-10.6,0.9
		C659.3,423.1,658.4,423.1,657.6,423z M685.9,267.7l0-0.1l0,0l0,0L685.9,267.7z M686,267.8l0.1-0.2l0,0L686,267.8L686,267.8z
		 M660,487.1c-0.3-2.7-0.5-5.4-0.7-8.2c-0.3-4.4-0.6-8.8-1-13.1c-0.1-1-0.1-1.9,0.1-2.8c0.1-1.2,0.9-1.9,2-2.3
		c0.5-0.2,1.2-0.3,1.7-0.4c0.8-0.1,1.6-0.2,2.5-0.3c4.7-0.3,9.5-0.6,14.2-1c3.1-0.2,6.1-0.5,9.2-0.7c0.8-0.1,1.7-0.1,2.5,0
		c1.3,0.1,2.5,1.1,2.8,2.4c0.1,0.3,0.2,0.7,0.2,1c0.1,1.1,0.3,2.1,0.4,3.2c0.3,4.1,0.6,8.3,0.9,12.4c0.1,1.9,0.3,3.8,0.4,5.7
		c0.1,0.6,0.1,1.2,0.1,1.8c-0.2,2.6-1.4,3.4-3.1,3.8c-0.9,0.2-1.9,0.3-2.8,0.4c-5.7,0.5-11.4,0.9-17.1,1.3c-1.4,0.1-2.8,0.2-4.3,0.3
		c0,0,0,0,0,0c-1,0.1-1.9,0.2-2.8,0.2c-0.4,0-0.7,0.1-1.1,0.1C661.7,490.9,660.2,489.7,660,487.1z M665.4,555.6
		c-0.2-0.7-0.3-1.4-0.3-2.1c-0.3-4.4-0.6-8.8-0.9-13.1c-0.2-2.3-0.4-4.5-0.6-6.7c-0.1-1-0.1-1.9,0-2.9c0.1-1.1,0.8-2,1.8-2.5
		c0.9-0.4,1.8-0.6,2.7-0.7c3.9-0.3,7.8-0.5,11.7-0.8c4.5-0.4,9-0.7,13.5-1.1c1.1-0.1,2.1-0.2,3.2,0.2c0.9,0.4,1.6,1,2,1.9
		c0.4,1,0.6,2.1,0.6,3.1c0.3,4.3,0.6,8.5,0.9,12.8c0.2,2.4,0.4,4.7,0.6,7.1c0.1,0.8,0.1,1.7,0,2.5c-0.1,1.3-1.2,2.5-2.5,2.7
		c-1.1,0.2-2.1,0.4-3.2,0.5c-7.7,0.6-15.4,1.2-23.9,1.8c-0.3,0-1.3,0-2.4,0C666.9,558.3,665.8,557.3,665.4,555.6z M705.8,621.4
		c-0.4,1.2-1.2,2.1-2.4,2.4c-1.1,0.3-2.3,0.5-3.5,0.6c-4.7,0.3-9.5,0.6-14.2,0.9c-3,0.2-5.9,0.5-9.4,0.7c-0.5,0-1.6,0-2.7,0
		c-1.5-0.1-2.6-1.1-3-2.6c-0.2-1.2-0.4-2.3-0.5-3.5c-0.5-5.4-1-10.9-1.5-16.3c-0.1-1.4-0.2-2.9-0.1-4.3c0.1-1.9,1.3-3.4,3.2-3.8
		c0.5-0.1,0.9-0.2,1.4-0.2c6.9-0.5,13.7-1,20.6-1.5c1.3-0.1,2.6-0.3,3.9-0.4c1-0.1,1.9-0.2,2.8-0.2c1.8,0.1,3.1,1.2,3.6,3
		c0.1,0.5,0.2,0.9,0.2,1.4c0.6,7,1.2,14,1.9,20.9C706.1,619.5,706.1,620.5,705.8,621.4z M844.4,511.5
		c-37.5-10.8-75.1-21.7-112.6-32.5c-4.8-1.4-9.6-2.8-14.4-4.2c-0.8-0.2-1.1-0.8-1.2-1.5c-0.1-1.2-0.3-2.4-0.4-3.5
		c-0.3-4.4-0.6-8.8-1-13.2c-0.4-4.6-0.7-9.2-1.1-13.8c-0.3-3.4-0.5-6.9-0.8-10.3c-0.3-4.5-0.6-9-1-13.5c-0.3-4.5-0.7-9-1.1-13.5
		c-0.3-3.2-0.5-6.4-0.7-9.6c-0.3-4.4-0.6-8.8-1-13.2c-0.4-4.6-0.7-9.2-1.1-13.8c-0.3-3.3-0.5-6.6-0.8-10c-0.3-4.4-0.6-8.8-1-13.2
		c-0.4-4.6-0.7-9.2-1.1-13.8c-0.3-3.7-0.6-7.3-0.9-11c-0.3-4.5-0.6-9-1-13.5c-0.3-4.4-0.7-8.8-1.1-13.1c-0.3-3.3-0.5-6.6-0.8-9.9
		c-0.3-4.5-0.6-9-1-13.5c-0.4-4.5-0.7-9-1.1-13.5c-0.3-3.5-0.6-7.1-0.8-10.7c-0.3-4.2-0.6-8.3-0.9-12.5c0-0.5-0.1-1-0.2-1.4
		c-0.1-0.3-0.5-0.4-0.8-0.6c-0.1-0.1-0.2-0.1-0.3-0.1c-3,0.2-5.9,0.4-8.9,0.6c-4.4,0.3-8.8,0.7-13.1,1.1c-5.7,0.4-11.4,0.9-17.1,1.3
		c-5.8,0.4-11.6,0.9-17.4,1.3c-0.2,0-0.5,0-0.7-0.1c-0.2-0.1-0.4-0.3-0.4-0.5c-0.2-0.6,0.1-1.2,0.3-1.7c4.4-15.3,8.8-30.6,13.2-45.9
		c0.2-0.8,0.6-1.5,0.9-2.3c0.1-0.2,0.4-0.3,0.6-0.3c0.5,0,0.9,0.2,1.4,0.3c8.9,2.6,17.8,5.1,26.7,7.7c33.3,9.6,66.6,19.3,100,28.9
		c35.8,10.4,71.6,20.7,107.5,31c9.5,2.7,18.9,5.5,28.4,8.2c0.7,0.2,1.3,0.4,2,0.7c0.4,0.1,0.7,0.7,0.6,1.2c-0.1,0.5-0.2,0.9-0.4,1.4
		c-2.4,8.2-4.7,16.4-7.1,24.6c-12.5,43.2-25,86.5-37.5,129.7c-8.7,30.2-17.5,60.5-26.2,90.7c-0.2,0.6-0.3,1.1-0.5,1.7
		c-0.1,0.3-0.4,0.5-0.7,0.9C846.7,512.1,845.5,511.8,844.4,511.5z M867.9,614.7c-1.8,6.5-3.6,13-5.5,19.5c-0.2,0.7-0.4,1.4-0.7,2
		c-0.6,1.5-1.8,2.2-3.4,2.1c-0.9-0.1-1.9-0.4-2.8-0.6c-7-2.1-14.1-4.2-21.1-6.3c-1.1-0.3-2.3-0.6-3.4-1c-0.5-0.1-0.9-0.3-1.3-0.5
		c-1.6-0.7-2.4-2.4-2-4.1c0.2-0.7,0.4-1.4,0.6-2.1c1.8-6.2,3.7-12.5,5.5-18.8c0.2-0.8,0.5-1.6,0.8-2.3c0.7-1.5,2.2-2.3,3.8-2
		c0.9,0.2,1.9,0.4,2.8,0.7c7.3,2.1,14.6,4.2,21.9,6.3c1.1,0.3,2.3,0.7,3.4,1.2c1.3,0.6,2,1.6,2,3.6
		C868.3,612.8,868.2,613.7,867.9,614.7z M887.2,547.6c-0.2,0.8-0.4,1.6-0.6,2.4c-1.7,6-3.5,12.1-5.2,18.1c-0.3,0.9-0.5,1.8-0.9,2.7
		c-0.7,1.7-2.3,2.5-4,2.1c-0.7-0.1-1.4-0.3-2.1-0.5c-7.4-2.1-14.8-4.3-22.2-6.4c-0.8-0.2-1.6-0.5-2.4-0.7c-0.5-0.2-0.9-0.4-1.3-0.6
		c-1.4-0.8-2-2-1.8-3.5c0.1-0.7,0.2-1.4,0.4-2.1c1.8-6.5,3.7-13,5.6-19.5c0.2-0.8,0.6-1.6,0.9-2.3c0.6-1.1,1.7-1.7,2.9-1.8
		c0.9-0.1,1.8,0.2,2.7,0.5c3.4,1,6.8,2,10.2,3c4.3,1.2,8.7,2.4,13,3.7c0.9,0.3,1.8,0.5,2.7,0.9C886.8,544.2,887.6,545.8,887.2,547.6
		z M906,482.3c-0.1,0.6-0.3,1.2-0.4,1.7c-1.9,6.6-3.8,13.2-5.7,19.8c-0.2,0.8-0.5,1.6-0.9,2.3c-0.5,1-1.4,1.6-2.6,1.6
		c-1.1,0-2.1-0.2-3.1-0.5c-5.9-1.7-11.8-3.4-17.8-5.2c-1.9-0.6-3.9-1.1-5.8-1.7c-0.8-0.2-1.6-0.5-2.3-0.8c-1.5-0.7-2.2-2.1-2-3.8
		c0.1-0.5,0.2-0.9,0.3-1.4c2-6.7,3.9-13.4,5.9-20.1c0.2-0.8,0.5-1.6,0.9-2.3c0.5-1,1.4-1.5,2.1-1.5c1.6-0.1,2.6,0.2,3.6,0.5
		c4.8,1.4,9.6,2.8,14.3,4.2c3,0.8,5.9,1.7,8.9,2.5c0.8,0.2,1.6,0.4,2.4,0.7C905.6,479,906.3,480.3,906,482.3z M924.9,416.9
		c-0.2,0.9-0.5,1.9-0.7,2.8l-5.3,18.4c-0.3,0.9-0.6,1.8-1,2.7c-0.6,1.2-2,1.9-3.6,1.7c-0.2-0.1-0.7-0.2-1.3-0.4
		c-8.3-2.4-16.6-4.8-24.9-7.2c-0.8-0.2-1.6-0.5-2.3-0.9c-1.2-0.6-1.9-2-1.6-3.3c0.2-0.7,0.3-1.4,0.5-2.1c1.9-6.5,3.8-13,5.7-19.5
		c0.2-0.8,0.5-1.6,0.8-2.3c0.5-1.2,2-1.9,3.2-1.7c0.9,0.2,1.9,0.4,2.8,0.6c8,2.3,15.9,4.6,23.9,6.9c0.7,0.2,1.4,0.4,2,0.7
		C924.5,414.1,925.2,415.5,924.9,416.9z M943.5,353.1c-2,6.9-4,13.9-6,20.8c-0.2,0.6-0.4,1.1-0.6,1.7c-0.6,1.4-2,2.1-3.5,1.9
		c-0.8-0.2-1.6-0.4-2.4-0.6c-8-2.3-16-4.6-23.9-6.9c-0.7-0.2-1.4-0.4-2-0.7c-1.3-0.6-2-1.7-1.9-3.1c0.1-0.7,0.1-1.4,0.3-2.1
		c2-6.8,4-13.7,6-20.5c0.2-0.7,0.5-1.3,0.9-1.9c0.6-1,1.5-1.5,2.7-1.5c1-0.1,2,0.3,3,0.6c7,2.1,14.1,4.1,21.2,6.1
		c1.3,0.4,2.5,0.7,3.8,1.1c0.6,0.2,1.1,0.5,1.6,0.8c0.8,0.5,1.3,1.4,1.3,2.4C943.7,351.7,943.7,352.4,943.5,353.1z M962,289.4
		c-1.8,6.1-3.6,12.3-5.4,18.4c-0.2,0.8-0.5,1.6-0.8,2.3c-0.8,1.8-2.1,2.3-3.7,2.2c-0.8-0.1-1.6-0.3-2.4-0.5
		c-8.1-2.4-16.2-4.8-24.2-7.2c-0.8-0.2-1.6-0.5-2.3-0.9c-1-0.5-1.6-1.5-1.5-2.6c0.1-0.8,0.2-1.6,0.5-2.4c1.4-4.7,2.8-9.3,4.1-14
		c0.6-1.9,1.1-3.9,1.7-5.8c0.2-0.8,0.5-1.6,0.9-2.3c0.7-1.3,1.8-1.8,3.6-1.8c0.6,0.2,1.7,0.4,2.7,0.6c3.3,1,6.6,2.1,9.9,2.8
		c4.1,0.9,8,2.2,12,3.3c0.9,0.3,1.8,0.5,2.7,0.9c2,0.8,2.9,2.4,2.7,4.5C962.4,287.8,962.3,288.6,962,289.4z"/>
	<path class="st0" d="M514.2,510.9L514.2,510.9c-7.3-15.7-14.6-31.5-21.9-47.2c-24.5-52.7-48.9-105.3-73.4-158
		c-0.6-1.2-1.1-2.4-1.7-3.5c-0.4-0.7-1-0.9-1.8-0.6c-1.2,0.5-2.4,1.1-3.6,1.6c-16.4,7.6-32.7,15.2-49.1,22.8L288,360.7
		c-77.2,35.9-154.5,71.8-231.7,107.7c-4.6,2.2-9.3,4.3-13.9,6.5c-0.4,0.2-0.8,0.5-1,1.2c52.2,112.4,104.5,225,156.8,337.6
		c0.2,0.4,0.5,0.8,0.7,1.2c0.4,0.1,0.8,0.3,1.1,0.3c7.1,0,14.3,0,21.4,0c0.3,0,0.7-0.2,1-0.2c0.3-0.8-0.2-1.4-0.4-2.1
		c-2.2-4.8-4.3-9.5-6.5-14.3c-0.4-0.9-0.8-1.7-1.1-2.6c-0.5-1.4,0.1-2.9,1.3-3.8c0.9-0.6,1.8-1,2.8-1.5c7-3.3,14-6.5,21-9.8
		c0.9-0.4,1.7-0.7,2.6-1.1c1.6-0.7,3.3,0,4.3,1.5c0.4,0.7,0.8,1.5,1.2,2.2c2.7,5.7,5.3,11.4,8,17.1c0.4,0.9,0.8,1.7,1.1,2.6
		c0.6,1.6,0.1,3.1-1.4,4.1c-0.8,0.5-1.7,0.9-2.5,1.3c-3.1,1.5-6.3,2.9-9.4,4.4c-0.7,0.3-1.4,0.8-2.1,1.3c-0.1,0.1-0.1,0.2-0.1,0.3
		c0,0.3,0.1,0.5,0.4,0.5c0.6,0,1.2,0.1,1.8,0.1H273c1.7-0.1,2-0.4,1.3-1.8c-0.4-1-0.9-2-1.3-2.9c-6-12.8-11.9-25.6-17.9-38.5
		c-10.7-23.1-21.4-46.1-32.1-69.2c-1.2-2.7-1.4-2.6,1.4-3.9c0.5-0.3,1.1-0.5,1.6-0.7c80.3-37.3,160.5-74.6,240.8-111.9
		c2-1,4.1-1.9,6.1-2.8c0.8-0.4,1.4-0.2,1.8,0.5c0.5,1,0.9,1.9,1.4,2.9c11.5,24.7,23,49.5,34.5,74.3h10.3c-0.1-0.1-0.1-0.2-0.1-0.3
		c-0.6-1.2-1.2-2.3-1.7-3.5c-0.3-0.8-0.7-1.5-0.9-2.3c-0.4-1.5,0-2.9,1.2-3.8c0.7-0.6,1.6-1.1,2.4-1.5c5.3-2.5,10.6-4.9,15.9-7.3
		c2.1-1,4.1-1.9,6.1-2.9c0.8-0.4,1.5-0.7,2.3-1c1.7-0.7,3.3,0.1,4.1,1.2c0.5,0.8,1,1.6,1.4,2.5c2,4.1,3.9,8.1,5.9,12.2
		c1,2,1.9,4.1,2.9,6.1c0.1,0.2,0.2,0.4,0.2,0.6h23.4c-15.2-32.8-30.4-65.5-45.7-98.3c-4.8-10.2-9.5-20.5-14.3-30.7l0,0L514.2,510.9z
		 M460.8,454c1.7-0.5,3.1,0.1,4,1.5c0.4,0.6,0.7,1.2,1,1.9c2.8,6,5.6,12.1,8.4,18.1c0.2,0.5,0.5,1.1,0.7,1.6c0.7,2,0.2,3.5-1.7,4.5
		c-0.7,0.4-1.5,0.7-2.2,1.1c-4.3,2-8.6,4-12.9,6c-3.2,1.5-6.4,3.1-9.7,4.5c-0.9,0.4-1.7,0.9-2.5,0.8c-1.2,0-1.9-0.3-2.4-1
		c-0.6-0.9-1.1-1.8-1.6-2.8c-2.3-4.8-4.5-9.7-6.7-14.5c-0.6-1.3-1.2-2.6-1.8-3.9c-0.3-0.5-0.5-1.1-0.7-1.7c-0.5-1.4,0-2.9,1.3-3.7
		c0.7-0.4,1.5-0.8,2.2-1.1c7.5-3.5,15.1-7,22.6-10.5C459.4,454.5,460.1,454.2,460.8,454z M429.1,393.4c0.9-0.4,1.7-0.8,2.6-1.1
		c1.6-0.5,3.1,0,4.1,1.3c0.3,0.4,0.6,0.8,0.8,1.2c0.3,0.6,0.6,1.3,0.9,1.9c2.5,5.3,4.9,10.5,7.4,15.8c0.5,1.1,1,2.2,1.4,3.3
		c0.5,1.6,0,3.1-1.3,4.1c-0.6,0.4-1.2,0.8-1.9,1.1c-7.6,3.5-15.3,7.1-22.9,10.6c-0.6,0.3-1.3,0.6-2,0.8c-0.3,0.1-0.7,0.1-1.2,0.2
		c-0.4-0.2-1-0.3-1.5-0.6c-0.4-0.2-0.7-0.6-1-1c-0.4-0.5-0.6-1-0.9-1.5c-3-6.4-6-12.9-9-19.4c-0.3-0.5-0.5-1.1-0.6-1.7
		c-0.3-1.4,0-2.6,1.1-3.6c0.4-0.4,0.9-0.7,1.4-1c0.6-0.4,1.3-0.7,1.9-1C415.3,399.8,422.2,396.6,429.1,393.4z M376.7,343.4
		c0.6-0.4,1.2-0.8,1.8-1.1c7.6-3.6,15.2-7.2,22.8-10.8c1-0.5,1.9-0.9,3-0.8c1-0.1,1.9,0.3,2.6,1c0.5,0.5,0.9,1.1,1.3,1.7
		c0.4,0.7,0.8,1.5,1.1,2.2c2.5,5.6,5,11.3,7.5,16.9c0.3,0.8,0.7,1.5,1,2.3c0.4,1.3,0,2.7-1.1,3.5c-0.7,0.6-1.6,1-2.4,1.4
		c-3.2,1.5-6.5,3-9.7,4.5c-4.2,2-8.3,4-12.5,6c-0.7,0.4-1.5,0.7-2.3,1c-1.7,0.6-3.3,0-4.3-1.6c-0.4-0.6-0.7-1.3-1-1.9
		c-2.8-6.3-5.7-12.5-8.5-18.8c-0.3-0.7-0.6-1.3-0.7-2C375.1,345.5,375.5,344.2,376.7,343.4z M86,512.3c-1.4,0.5-2.9,0.1-3.9-1.1
		c-0.4-0.6-0.8-1.2-1.1-1.8c-3-6.3-5.9-12.7-8.9-19c-0.5-1-0.8-2-0.8-2.7c0.1-1.3,0.4-2.2,1.1-2.9c0.6-0.5,1.3-1.1,2-1.4
		c4-1.8,7.9-3.8,12-5.4c3.3-1.4,6.5-3,9.7-4.4c1-0.4,1.9-0.9,2.9-1.3c1.6-0.6,3.1-0.1,4.1,1.3c0.5,0.7,0.9,1.4,1.3,2.1
		c2.9,6.2,5.9,12.5,8.8,18.7c0.3,0.6,0.6,1.3,0.8,2c0.3,1,0,1.9-0.6,2.6c-0.3,0.4-0.7,0.7-1.1,0.9c-0.8,0.5-1.7,0.9-2.5,1.3
		c-6.9,3.3-13.7,6.5-20.6,9.8C88.2,511.4,87.1,511.9,86,512.3z M114.2,573.7c-1.3,0.5-2.7,0-3.5-1.2c-0.4-0.6-0.7-1.2-1.1-1.8
		c-3-6.4-6-12.9-9-19.4c-0.4-0.9-0.7-1.7-0.7-2.7c0.1-0.9,0.3-1.7,1-2.2c0.8-0.5,1.6-1,2.4-1.4c4.8-2.3,9.7-4.5,14.5-6.7
		c2.6-1.2,5.2-2.4,7.7-3.6c0.9-0.4,1.7-0.8,2.6-1.1c1.4-0.4,2.6,0.1,3.5,1.2c0.7,0.8,1.1,1.8,1.6,2.8c2.7,5.7,5.3,11.4,8,17.1
		c0.3,0.5,0.5,1.1,0.7,1.6c0.2,0.4,0.3,0.9,0.4,1.4c0.3,1.3-0.1,2.3-1,3.2c-0.3,0.3-0.7,0.6-1.2,0.8c-0.7,0.4-1.5,0.7-2.2,1.1
		c-6.9,3.2-13.8,6.4-20.7,9.6C116.4,572.8,115.3,573.3,114.2,573.7z M141.7,635.3c-0.9,0-1.7-0.3-2.2-1c-0.5-0.6-1-1.4-1.3-2.1
		c-0.7-1.4-1.3-2.8-1.9-4.2c-2.2-4.7-4.4-9.5-6.7-14.2c-0.4-0.9-0.8-1.7-1-2.6c-0.4-1.4,0.1-2.7,1.3-3.4c0.7-0.4,1.5-0.8,2.2-1.2
		c7.4-3.5,14.9-6.9,22.3-10.4c0.8-0.4,1.7-0.7,2.7-1c1.6-0.4,2.8,0.2,3.6,1.5c0.3,0.5,0.6,1,0.8,1.6c2.9,6.2,5.8,12.5,8.7,18.7
		c0.3,0.6,0.5,1.3,0.8,2c0.5,1.4-0.2,2.5-0.9,3.2c-0.4,0.3-0.8,0.6-1.2,0.8c-0.6,0.3-1.3,0.6-1.9,0.9c-7.4,3.5-14.9,6.9-22.3,10.4
		C143.8,634.8,142.8,635.3,141.7,635.3z M171,696.8c-1.3,0.3-2.4-0.1-3.1-1.2c-0.4-0.6-0.8-1.2-1.1-1.8c-3-6.4-6-12.9-9-19.4
		c-0.4-0.9-0.8-1.7-0.7-2.7c0-0.9,0.3-1.6,1-2.2c0.6-0.5,1.4-0.9,2.1-1.3c1.8-0.9,3.7-1.7,5.5-2.5c5.7-2.6,11.4-5.3,17.1-7.9
		c0.8-0.4,1.7-0.8,2.6-1.1c1.5-0.4,2.9,0.1,3.7,1.4c0.5,0.7,0.8,1.4,1.2,2.2c2.8,6,5.6,12,8.4,18.1c0.3,0.6,0.6,1.3,0.8,2
		c0.5,1.4,0.1,2.9-1.2,3.8c-0.4,0.3-0.8,0.5-1.2,0.8c-0.7,0.4-1.5,0.7-2.3,1.1c-7.1,3.3-14.2,6.6-21.3,9.9
		C172.8,696.2,171.9,696.6,171,696.8z M227,739.1c0.4,0.9,0.8,1.7,1.1,2.6c0.5,1.4,0.1,2.9-1.1,3.8c-0.5,0.4-1,0.7-1.5,1
		c-0.7,0.4-1.5,0.7-2.2,1.1c-7,3.2-14,6.5-21,9.7c-0.7,0.3-1.5,0.7-2.3,0.9c-1.3,0.4-2.6,0-3.5-1.1c-0.2-0.3-0.4-0.6-0.6-0.9
		c-0.2-0.3-0.3-0.6-0.5-1c-3-6.6-6.1-13.1-9.1-19.7c-0.3-0.7-0.5-1.6-0.6-1.9c0-1.4,0.3-2.2,0.9-2.7c0.7-0.6,1.5-1.1,2.4-1.5
		c7.6-3.6,15.3-7.1,22.9-10.6c0.6-0.3,1.3-0.6,2-0.7c1.4-0.3,2.6,0,3.5,1.1c0.4,0.4,0.7,1,1,1.5c0.3,0.6,0.6,1.3,0.9,1.9
		C221.9,728.1,224.4,733.6,227,739.1z M470.4,577.5c-1,0.5-1.9,0.9-2.9,1.4c-16.7,7.8-33.4,15.5-50.1,23.3
		c-64.8,30.1-129.7,60.2-194.5,90.3c-1,0.5-2,0.9-2.9,1.3c-0.4,0.2-1.1-0.1-1.3-0.4c-0.5-1.1-1-2.1-1.5-3.2
		c-11.4-24.5-22.7-48.9-34.1-73.4c-24-51.6-47.9-103.2-71.9-154.8c-2.1-4.5-2.5-3.6,2.1-5.8c81.4-37.8,162.8-75.7,244.3-113.5
		c1.3-0.6,2.6-1.2,3.8-1.7c0.7,0.3,1,0.8,1.3,1.4c2.3,5,4.6,9.9,6.9,14.9c28.2,60.7,56.4,121.5,84.7,182.3
		c5.2,11.2,10.4,22.4,15.6,33.6c0.4,0.8,0.8,1.7,1.2,2.6C471.3,576.5,471.1,577.1,470.4,577.5z M475.1,555.5
		c-1.4,0.3-2.6-0.2-3.4-1.4c-0.5-0.7-0.8-1.4-1.2-2.2c-2.7-5.9-5.5-11.8-8.2-17.7c-0.4-0.9-0.8-1.7-1.1-2.6c-0.4-1.2,0-2.4,0.9-3.2
		c0.4-0.4,0.9-0.7,1.5-1c0.9-0.5,1.9-0.9,2.9-1.3c6.3-3,12.7-5.9,19-8.8c1-0.5,1.9-1,2.9-1.3c0.6-0.3,1.4-0.3,1.7-0.4
		c1.4,0,2.3,0.4,2.9,1.2c0.6,0.7,1,1.6,1.4,2.4c1.5,3.1,2.9,6.2,4.3,9.4c1.3,2.8,2.6,5.6,3.9,8.4c0.3,0.8,0.7,1.5,1,2.3
		c0.5,1.6,0,3.1-1.4,4.1c-0.5,0.3-1,0.6-1.5,0.9c-7.7,3.6-15.5,7.2-23.2,10.8C476.6,555,475.9,555.3,475.1,555.5z M532.3,601.3
		c0.1,1.5-0.3,2.3-1.1,3c-0.6,0.4-1.2,0.8-1.8,1.1c-7.8,3.7-15.7,7.3-23.6,10.9c-0.6,0.3-1.3,0.5-2,0.7c-1.2,0.4-2.7-0.2-3.4-1.3
		c-0.6-0.9-1.1-1.8-1.5-2.8c-2.2-4.7-4.4-9.5-6.6-14.2c-0.5-1.1-1-2.2-1.5-3.2c-0.3-0.6-0.6-1.3-0.8-2c-0.6-1.7-0.1-3.3,1.5-4.3
		c0.7-0.4,1.5-0.8,2.2-1.1c7.4-3.5,14.8-6.9,22.3-10.4c0.6-0.3,1.3-0.6,2-0.8c1.4-0.4,2.9,0.1,3.8,1.3c0.4,0.6,0.8,1.2,1.1,1.8
		c3,6.5,6,12.9,9,19.4C532,600.1,532.2,600.9,532.3,601.3z"/>
	<path d="M359.9,327.3c-0.5,0.2-0.9-0.1-1-0.7c-0.2-1.7-0.4-3.3-0.5-5c-0.3-3.7-0.6-7.4-0.9-11.1l-68,18.4c0.2,2.2,0.3,4.5,0.5,6.7
		c0.6,7.2,1.2,14.5,1.7,21.7c0.1,0.6,0.1,1.2-0.4,1.9c-1,0.5-2.2,1.1-3.4,1.6l74.8-34.8C361.8,326.4,360.9,326.8,359.9,327.3z"/>
	<path class="st2" d="M514.3,510.9c0.4,0.8,0.7,1.6,1.1,2.4c0.4,0.9,0.9,1.8,1.3,2.7C515.9,514.3,515.1,512.6,514.3,510.9
		L514.3,510.9z"/>
	<path d="M521.3,519.6c-0.9,0.1-1.9,0.2-2.9-0.2c-0.5-1.1-1.1-2.3-1.7-3.4c-0.4-0.9-0.9-1.8-1.3-2.7c-0.4-0.8-0.7-1.6-1.1-2.4l0,0
		l9.9,21.2l0,0c-0.3-0.6-0.6-1.3-0.9-1.9c-0.5-1.1-1-2.2-1.4-3.3c-0.1-0.3,0.2-0.8,0.5-0.8c1.9-0.2,3.8-0.5,5.7-0.6
		c1.3-0.1,2.7-0.2,4.1-0.3l-2.3-6.2C526.9,519.2,524.1,519.4,521.3,519.6z"/>
	<text transform="matrix(1 0 0 1 998.0791 283.1045)" class="st3 st4">TM</text>
</g>
</svg>
